<mxfile host="app.diagrams.net" modified="2021-07-17T06:43:02.269Z" agent="5.0 (Macintosh; Intel Mac OS X 10_15_7) AppleWebKit/537.36 (KHTML, like Gecko) Chrome/91.0.4472.114 Safari/537.36" etag="lLpdX3Q4QXWqWbeKG3Mn" version="14.7.6" type="github">
  <diagram id="rCIBDQeKsImiXUpVYnN-" name="Page-1">
    <mxGraphModel dx="742" dy="477" grid="1" gridSize="10" guides="1" tooltips="1" connect="1" arrows="1" fold="1" page="1" pageScale="1" pageWidth="827" pageHeight="1169" math="0" shadow="0">
      <root>
        <mxCell id="0" />
        <mxCell id="1" parent="0" />
        <mxCell id="zwPLfm4R1rq6E3rboXGS-1" value="1" style="ellipse;whiteSpace=wrap;html=1;aspect=fixed;fillColor=#f5f5f5;strokeColor=#666666;fontColor=#333333;" vertex="1" parent="1">
          <mxGeometry x="410" y="170" width="30" height="30" as="geometry" />
        </mxCell>
        <mxCell id="zwPLfm4R1rq6E3rboXGS-2" value="" style="shape=image;verticalLabelPosition=bottom;labelBackgroundColor=#ffffff;verticalAlign=top;aspect=fixed;imageAspect=0;image=data:image/png,iVBORw0KGgoAAAANSUhEUgAAAggAAACeCAYAAABXXPIUAAAgAElEQVR4Xux9B3hcZ5X2e8sU9WZVy0XuvfeSOHacSkhIJ5sGJITAsiQBlrD8kCzsLiwLm8BCIA0SAmkkENK7HXc7cVzjKluW5KbeRqOZue1/zvnunRlJI6uNFdmZ8eNE1ty5893ztfc75z3vkUxTt5B4JSyQsEDCAgkLJCyQsEDCAlEWkBIAITEeEhZIWCBhgYQFEhZIWKCjBRIAITEmEhZIWCBhgYQFEhZIWKCTBRIAITEoEhZIWCBhgYQFEhZIWCA+AEGSJL6RZfWPvkD3icc9Em2JPbIT9k3YpTdrXjzGC31fPO6TWGO6Hrt9We/InqZpct/090VrtnOfePV1f/eBxLjrulf700d98iD05wujHyMe94nHPeI5uAbTQB8sbenvguR8Pl59HY/2xKst8bhPPO5xNs6BePRzvOzyabfF2dRprBiGAVmW+wTk4g0O4mXfwTQHPu2+jtf3c98kSIrxNGfiXgkLJCyQsMDgsoCzeXbcRGmzJ6DQm4OEc208PBGDy0qJ1sSyQFwAQrzQWzy6KNGW0+dWj0f/xOvEEK/7xGu8xOs+8bBxoi2ndw7Ew77xuEdP50DHU7+maWwgRVF6HXKge1Gogv6vqmo7Q8frmRJzIB4WiM8c6DdAiEesMB73cCYL/b83iDgmakpwI2KOrngsAIOprwdTW3q62He3dMTzmeIxj87G+djfZ4pnH/WkLR2/r6qqCq+++ioWLFiASZMm9QokBINBrF69mj9z3nnnweVy8ZCM5zMlxl3nWf5prb39BgjdLVhn8/uSZYrHk2RE6JpEAor8y5JkSPY/nf9bEsB/6aOwIEeRPftK+5QsmZtC941+8XdKdjvtN5zvoGudNtkPAsmSRNui7kPX8HUW/d75R8eeFd8vXu2/72weA4lnS1hgsFsgenOhzbempgZr1qzB9OnTUTJ6FB+oFEkO8xIcMiN9jn6mMITDW/D7/XjyySfZ+3DTTTfB4/GEwQFd53gX6LPO9zq/j/6dc+9EqGJwj54EQOhH/2iSIvCB/VemvZN+js7ukMid5+y2dvYHBKCwaBJZEuhzsTZ3/h1/2ui2lc53Ek5wAADd29nYedtWojdx597Rt6ZPis3dxgOwwm0Xn1WIwRwFgNo3zLl/AiB022GJCxIWGGALOBs2eQEaGhqQlZUF1e1Cc3MzkjxetLa2ggBAamoq0tLSwiEICkm0tLTwewQMXnrpJQ4v3HDDDUhOTuanoPv5fD4kJSXxZ71eL9ra2vhz9Dv6S96GpqYmBiTp6ekMPOKVWTHApjzrv84BbgmA0I+uNiWFN+Dw9k/7orMj26d2cRIXXoUwcHB2X+fELwt3QsfTfwQgRLsFYqUpkRdCgAgCHbE2ePpKNfwFAnaIlwNvxKdMSY/6jX2N7Z3oh6kSH01YIGGBT8kC0WRE+vn48eN45JFHcMkllyArJxtvvPEGMtLSUV5ejtLSUhQUFPDmTx6GUCiE9evX4+2332YgUVhYiIqKCsyaNQu33norP9GGDRvwwQcf8H1TUlI49LBkyRIQEHn22WeRn5+PK6+8ku/1hz/8gf99zTXXMMggwJF4DT4LhAGCZRntvNp9jf90dBX15T6x3E3xuE887sHbZ0fdBwIBdEqnLZWtKHz2FoMDi38lw80/iT/it+Q/4E9FAYXwXh1zrERNoi5jEOSpcE7wkU3fASgmNQ20+Ts+AWqz47qgz9E7FkxZvM/ehwhCCYMOSRLXRl6CsNTbVzzGC1u8Q153PNoSs6978ICJtsQ20tlmlzNt3HWMXx86dAi//e1v8fnPfx5D8nLx+9//HoX5BVi2bBmHDMhDQCf8r3zlK6isrMRDDz2E5cuXY+LEiaDPPvbYYwwubrzxRuzduxdvvfUWvzd16lS+ftOmTZgzZw7OPfdcbN68GS+//DIuuugiBhAELig0MXLkSAYIsWLrZ9w+cIavDada7xIehB50rnOJwwYOI3LacDmQrwC0A9MmSy54cvNbhhj8vIlFwIHgCsjgqAF5Hzgu0YEjYInrnZfcCUl0BiuS7YUQn6E22aCFCQUmt9FUopkSBFPoD7Mg+FOmZcEdBjtOfEN8hkCP4CxEexycFiZCCr0YRolLExb4VC1w+PBh/OpXv8IXvvAF5Obn4eGHH8bKlSv5r6qoePOtN/Hxxx/jS1/6ElatWoX9+/fjnnvuwZDsHNTW1jKgGDJkCHsFnnnmGZw4cYI/m52dzV6CN998k0MK9HnyEDz33HNYu3YtAwICHYsXL+a1kf72Ns3yUzXcZ/DLEwChF53uoN2w6Ihln+wlEblnv4EF0F5NO7wsAxIVy7R0gEIAdLmpA61taKyrYe6BYsqQbIqBEwEIn4Ltg7qAGac+pQdkC4pJYQRAJjwgKbBUBX7JgJziRUb2ECguj91AAigmoLjEbRWbE2E/A+EVAjUMGgwBdCKTmeFCDKslQEIvhlLi0oQFPjULEED49a9/zRs8eRBefPFFnH/++VgwfwEM08C7776Lbdu2cRjglVdeYe7ALbfcgtTkFCYr0oZPaxSFEh599FHe/HNzcxkAEKcgEAiwB+HLX/4y/37nzp249957MWrUKNx///0cwggfLeKk7vipGfMs/+IEQOhXByu8VZLzwOQfDKh0HjdC0FqaoJJTvzaAo4f2QW9ugsfQ4NVDaKyswIGdu6C3tfH1ir0Zh7MLyIMQ7cW3OQAdmQjR23RABVQTcBEOoQ1elhCUTPgUC7mjhmHcjOmAlQFLpkADYCgK8kcOR3phAUxVhuVWILncQIoXssfDz2PawRDhElGg2KTKsMnapUBEAEL7zIh+GTjx4YQFEhaIswUcgHDVVVcxQHjhhRfYAzB37lze+N97770wQKDNnzwEd9xxB7IyMtlD8Pjjj8PtduPSSy/F008/zeTFz33uc+xBIN7BgQMHmOhIIIEABV1DgEPXdVx77bUcriAw0Vc1xzibI3G7U1ggARD6ODyYfUtypXSe1nRIugazsQF6dTWaDx5E2cdbYfpa4WprQ/Xx42jztcDNDgSd3frZQ3LhTUnlvdfstKMK5mMkn4AJBKd8OdEDOyAAmcIbpglD01B14iSCwZCI+bG3gFIZJWQMyUH+0GJoEqAQKHC5UTxrFtKHFkF3u+HOzYUrKwuWJxmmSsGHGISicNsTAKGPQynxsYQFBtQCBBAeeOABEEAoKCrE888/jwsvvJABAq1r5EH46KOPOERw9OhRPPXUU8xXmDBuPI4dO8YAgQiMRGQkAEE8A+IbTJ48mcEEkR5JX4F4B1u3buWQwwUXXIDq6mrs27ePv5c4C30RahpQQ32Gv8zxlp+lAMHZTaNd8xHWvhN5F/0vqITi1e7Y3m54OCwCiY7WgRD0tiAUPQDN58PxvXth1dWjpawMdQcOwGpogBoMwE37ugqk5eUho7AQusuFgKwg5HJj9LSZ8BYWwFJdgsMQ9QqTdMJNtgkLp0J6FMWgzZo5hHT8NyFbEoz6Fhz5cBs0nx+S3MxhDdWyEGpsQVVZBVTDgqQbcCsuBIJBGB4VkjcJrYqM3PHjkDthIjLGjkPm+PGwklNhuF2QVPJ7CDKjCKfQf0zxm3baChF7hr0jNuwR0CrxSlggYYGBtgARBSmLgTbwwqJCvPLKqzjn3HMwY8YMPvFT1gKFBei0T2mMJKpEXoFkbxK/TyCBwAS939jYyICC3ieCI6VEZmRk4KKLL4LX48XLr7yMwsIiXHrpJRx6IA2FrMws/ixlPCR0EAa693v2fWcxQBCkOxG3J1+7fbINp+rRDhpR/hFMfSLyybZ4EVUqs5hDyEKizA8wmOin19fDf/Ik6vYdRNXBMshN9TD9PlTu2oNkzYCkaUjLzICak4mS2TOQXVyEgOJCSnEhlOHDAI8XkDyArABeL+ChjZb28/b6BJ1j/DFi/tGZig7OEekHYgRQcoppCq5BW8gWPdAEBtINoMWH1sNHgJYWqLoOVTdRXV6GI9s2Q/cHIIU0+Fr8CMgyXEWFyBg/AXkTxqFo1hwkDy2CnJIEU5YgySTXKvTcTclgkKByvMXRepCFNyOcxklAgtIyEwChZ1M1cVXCAvG1AOkV0IY+dOhQ1iwgjwJ5EihEQBtDdXUV6urqUVJSwqEEf6sfZUfKUFtdg5ycHNY4IF7CsGHD2CtJ6Y8EOkiAiXQVxo8fz9eRx4A8CpSxkJmZyQ9RWVGJ5qYmjBkzhomMCZJifPs23nc7Sz0IHQR7OB3R+R2BhzD7z4ERtiCR2NYoSq+bJlTDhNHUBF/lUbQcKUPd/n2o2LoVcmML9MZmGLIErzcZBQVDUTJ+EkJuF7InTIRr3GggLxtIIxERCVAVWG4XLBZFUsOOChY1ooIpjiKj07uUgdDV/hmLH8jX2kqKfEIXLEnLpKptdjaDYcJU3OLEzxs4AQUNMHQBJCwLhq8FaKiHEjJhHDuOmt17UV1aiqOHj6DN72MfwZCx4zBsxnSkjx2D3NnTYXq8UNLSAEXiFEnNzomQGaTRi+5NrVNEH3C2B1Eauhd/ivdgT9wvYYHPogU6phI6p/Z2KcGccSXWBVof6T3+Yxd04jnsaKzY9Rhoc48sWRIMqtFAnCpZEQcGS6gwRmd/0TpD7zsvR6Hxs9gvZ8Izn5UAISI73AWz3nJAgkgx1CQZIU5LBFymBUXXIbf60Hr8KMo2bcTRTZvgO3gQiq8VeXn5SM7OwfDxE5A+ajyCqgJXYR48JSNgJnlh0YaZnMJeAkobpBgDJzJQnJ/c+7wx2/s5AYSw2MCphkv3GQJWFD8g+nBOU16HAdqw3fbmLDIZLd7w6aHFwiCYliq1jbwQehAgUFBbh1BpKXDsJHatWYe6QwcR0oIwMjNRPGcm1PwCDJs+HUkFQ5EytAiWNwmaR2W4IhNAocVGtkDMC4VawakecgSvnQmzJNHGhAXOYAtEyxrTz7QpU/zfAQjRv3OklaPllhnQ21onzu/DwMG2SzQIcQBBNHiIVkx02sPHml5WkzyDu+GMbPpnAiA4G6bjfTclU2T/8+FWhgkFBiFbI4TA0aOoObAf7kMHsWfjZmjHqpAKCUUlI+AaXojUyWPhHTUSSUOLIKXlAVTRTHEx45/c7REdBJ0Hv2YJMRCeDOwtEHsx6wrYG3NH8l97FYTY4yrsBXEmaIxMSD4P2NLLnM1I2zTpNESdBBwlRdFukj4VbAKDUjRNAx5qYyAIhIIIHTmC6i0boVVW4uQn+2E0NCGoGwikJsM9cgSKps/EkBElSJs1FR6vF4o3SaRS2sQE8jBwxgcsuCxR5CXxSlggYYHTbwFnU+5qQ44GCdGn+mgQ4QCF6PUjGhg43xENPjo+WTi2bRfE6wgmTr8lEt/QGwv0CSDEdFH15ltjoM4+fJw/Eqst4lBucwpYMNCIFExiASFdnJIlGYYpQ7EkaMerUb1tG/a9/ipq9uxCrq8ZrtR0pJWMxvCFizBk/lxYBTlAViokF+2elAnASY0wOXxBp2ZFOPfDxZjoXcN2+DsiQ+J9itbTYZpO2GoHDkLHZ+oxkSfCBIyYMypUoTMfI/ILWwMyXHiBWmTK7EIASJ9BOBttNoEuwhGhINDSiqb9+2CWl6N6y8doq6hEY209mrQglMw0pIwch8zRIzF2+blIGjsWSnomEzH5bo7ogx0SiaWk1tVYGOzjri9juDfPPxB2cTaBvjxLV/OxL/dK9HUXB4N24L4vlhWf6Wrc9UWJNLoVPV6roj4Uj76Oxz3iPX7jZct43Kev9+gzQOjrF/Z9SHc9YTq2xdYpAlVSDKNeiofx5CJ/vwzLlGCGWqDVn8SR9RtQs2UnWvcfAZp9yM3MQNbUscgcW4L0aVOhDBsBKTNbZBvw/qqz6JFl0VmY4mlCJ8DhAdApWbdD/0nML3AYeh1Z/Y4f4NQiSBz76OZlsFckko8hHrxDYkY4W8O+WQdAwTFHOuUzeLG/kzwr/JTkbqFnUcAxE8MAWn1AYwO06uOo3bUbvkNlqD6wH0ZVC1oVQB5ejJErlmHU8mVwFRbB8iQxB4ErRvaBgxCPzbQ7O/b0/URbemqpM/+6z1Jfn2pdZ16CZTH5kKSYnUJN/QUIZ/4IOXufoE8A4UwwhwgrUPjA3jQpHk4bLfnQ6STrD+Lkpg9w8I1/wLfjE8CnIWf4aBTMnoOC2bPhmTgBSPYAqV6QN5zLNnN4nrZL4Z2QTRI0EuWRGX1yckR7Xz8XdIphsLB6crh2w6ms2jHLofO1lOIYBkZdJG5yZgM3tEOtJkiCj8A4hoCOE+QQMIHedTIreAEhnobERhH3MzTA3wo0NiJQVgGUV+DQxztRsXcf51UPmzUNw85ZgIxZs2DlDIHh9sJF7bXdjGfCeEq0MWGBhAWAqqoqLsA0c+ZMLFq0qFOxpb54EBJ2HbwW6DdAiIdrJx734H3PPmnzZsf8ebGxiuoHRLwzEAz4YZbtR8O2D7Hpr3+DdKIWxUOHI3/6TAw9bzmUCROA7ByYpAdAhZZNnZSIxSbPJ3IKGogTtsskoGBBnN75ajt9L1LfQNQusFUU7NM5tYy2YQEmItfGGiZiE+3egyAR8LE3fkcIKQJaxJ1FpUfHbSBqKwi8EGEwyyaTD0QtB/Ya2DoRdjscTwXDHsp8IMIT8TAsA5YpilBBU4CKctR/uAlbn38OvooyuNLSUbB4EWbefCOkYUNheFLaFWuJtbCc6jQTjzETj3tEj7v+etXiAZji+UzxeB4ed30o5hU9FwabXfr7TPHso/62xRm/PekjuoaEk+677z4WPiLBI0pz7NhX/dnuBltf98Qup3reePb1p9GWTgChtwt1V8bpeJ+ePBx/xilqQD/bLH+RN++ccG1pYzuNjrYxkhYWVRTF9mdaEhQiAVpUTInggQsSucT9Tdj5zJ9Q8+qraD12HC0pqZh26WUYveQ8JI0eByk9DUhyM0GPJQ7tl/ActPcMiK09svnH2sKjr2l3s2jPv3isXr/6Yt8I/8BOZ4oRuujcT06cIjo84lSEtAGGUxfKsZchPA9tTU1o23cAVe+vwfG1a+FvbICnpBCTzj8H+RdeAVduDuBxQafsCYVAhoArQnCJvD/MigiDPOKKUIiCupRCOHSl0mHz6ZtdOps/HveJxz2iAYjTyp7MpY5PNJjbEpVTE5Eto0wjxqbE8RF9LXRNxDwUQl3k2xKJyWLkdP9SeHK3m9gC2FLKno2Hg6oOt0UZNzbD1y5gyjOBFxmatJT3R9VP6V7OUUTIptCI7cgr6r5lzlxq/xSDqq9hoaKyEj++/99ZefGKK65gPYSebJD9Gbunaw7QfT8t+36a+2x3a0O0XfrtQejpwO/JddGZuI4qn1gGLN6gaeoYkp0J4ETcuT6AmKQkWeyEFExTFyEFIigG21CzYzsOvvk2jnywFmmQkVsyAkMXzsfwiy4BhuQBriTBMZBFuebotEHRdtGGxKtrC4i1k5ZuQ2zwhgW3ZgC1DQjt2oOd/3gJVfs/gWSEoE6cjNmXXYqcefOAzExYMslA02nEzr+WREok9Sl5abjope0i4W+w19GOACHRP2emBRzflihLLngqYtcXAS4uQEZjw3blsWqoTfIVHjZeHZypGsEATlXT8L4rPGPs0+MfBVmZUKfI/6cfRZVWiU4olBZof5b0SlhJlVN3JVsina4SWh9ipRIHGD7QnG0vSUJFZQX+/b77GSBQNcjuAMLZZoLP2vMMKoBArm3hQAjz6wUMCM81CZpkwMXyBTR5KZ/eJvqRMEd4c9FhaUSnMxCoKkfjRxux+/m/of5wBfKLSzD+0kuRO3ceXMVFMJOToLs8nIFA6n5cxZDLM3esO5AACN1NDgcg0OmeFlNe1EkcilbMtiCMinLUbFiDve+/A5QfhVxQgIy58zD5mmvgGj4cBhVwIZBgq19Kwk0gQJvYK2yo5qhj8g7SXbMS7w92C9C8s7OO2nenMxcdfo/D97HLqNu8H3tQCBTRzUukOIchfxgUMKC1KwsqHK4T9Up09loQeKCwoAnJojVKhsm/I3Bgr1U2cHDcgZZ8FgqB2QDh/h/dxzLNCYDQ3Wg7c993PByDCiCQd8BZ8p2yAk5g3SQkz2peuggucOiAUDzjfCYfCpekBN0IQdZD8B8+iA+f+AOa129EuqRi5OJFyDx3KTLnLuKsBFNVoNmxdaqoKOR9TJgsmtQ+tpbwIPRssLPvxVK5UJTECIGU1GijlyBRmmSgCcGjR9D0p+exdc06tPjbULhoAYZddAGKlywFUtPZ3ct9SpkhDvmSD4nCx0RcDz7J8b8TAKFnPTO4r7LZK5FG0mRmr6EdWrQ3XOFZsFU5HY8SA3rS2OjJWBBC7OIcEIEKDY11qKmrRlFxMZK9aUILhMi4iqNSQosLsY+EDDvFP2mFkFh8jACDU9XF/sGReB/cZu9d6xIehN7Z6yy4WrIsh9re9dP0JE7THXu1J/cwJDEZefF3vAaE7Akc2M1zmRqjd8oqoJMprQkUVjQskkY2OG5o1TXi43f+jtJXX0F6RRVyUrIwdOUKDL3+KqCoCJbkgkUxR8mCZplwk6oYnwAYgbDQYUd40FeA0J1deB/sxh0Zj3sw8OrBAtrftrDwia7wGm7Sgsqnf5uISUJRVESKwEJ5KQK7dmLbCy+ibPt2SDm5WHrbV1F80cWw0lIAlxdtpD5JOhFOhohNUWFXr0VhDMFVONWru+eJl116cp9EW2L3FG3GpPbpJP1GRMBoMxfueufkz+9x4F/8pd9TGMqACdWkeqlRGCMGXmB6MXsKI99iaAH89emnsXr1e7j885djxoJzkJaZCdWtQlUICDgy5iLEQT4Eug8nNnNZdAm6Hd4UcKFnHIR4zMeBHHf01JWVlRxiIA/C6eIgDJRdzrS1dyD72lmrBpUHwbQUzhgIu+lYcUCcQtlfYNqLBYUVIvWWEFKpKFEI7jYN1R9uxcn1H+D4uk1QWvwonjEdY75wOVxTZwFZmbCUyKrB4YSolyA5klfCKTXU7t0EB6GHiFiXdCimvbUTgOPQEW0AMlwm6SgAptoGWQsisHsXql5/B3Wbt6M5GET+0iUoWHk+MqdNRmuyO5xO6WKxaPESDub2pNEeNi1xWZwt0BPyY/dMbkp5tSkEsipqjNkRPpMrjSoIkfdJUaAyp0BsznxhsFXocxAJOVY5crELRKEGItWZgMcDuBRo7CVwYcdHW/Hqiy9h2uTJmDF9GkZMGC9OCeHlwgYkTIgmD2OkpotmmJBVMTqZMUHk6K7aEmf7D+TtaH0kgPCTf/8xVq5cySGGeGcxDOTzJL6rewsMKoBAGgOMzkmfW0T6xKSjUsZ0uJdlGMRqtkPTlJmgKBYsI4DAwTLs/evrOL5xM1rrD2DosNGYuuISpMyfD6WkBFZqhl2amDYsg4GCcw4Ra4hYCcIu6w7goa8ehO674My6IvpQ1hUNS5f8UOCGTCc6x642+ZOJXIYEWQ5BZ6Y4IFfXoOHdd7H7r39DQ3UtMiZNwriVy5G+eDaS8/MBTxJMuKgeVFj8SYwM4oV0H3c+syx8ZrW2JwCh2ydyCIF2ogJ7nxw1UsOASuRhw4TW0ICm6pNAwAePoaHt2FEc+fBjqM0+pEgy9LBKp9iqO6YHkS+LxlzAJWHYjKnInTgOPkVFUFZQVd2AY0dPYsKEiag2mpEuu5Dl8cLjcsGTloyUwqGQPG7OkCKfFnGg+LBB3sd2XAhb36NdW7q1wBlxAU1lSnOkLAZKcyQPQgIgnBFd1+dGDi6AYEgwVVHYR7UMyC0BHN+1DyerqzHtnEVQs9JhkLwxbQrEbJdMyKE2BPaXYsuTz+LYuo3IVFWMXDQDQ889F2lz5kLKyIUluyBRGUN2QQhmvBA5dpjHtlCQbUZyG3aWHkiQFO1lt91giwUSTMk5QQl5ZZt4HnENkcCUFYKkeJlEzlkKDfVoXLcRVWs3Yt+GjXB5XMhdtgizrr0KaslwwO2lURGOG1NdB5H+2uexn/hgHCwQD4BALno6/7tpclLE0zJh6EHo/mZ4DAOttbWo+mg7mg8fxv6d22H5fUimMeT3A/4QvJKLgWabEurwRJ1jDB7J4PmveD2Qkz1ohoUWVUGtYWD45Mm44p9uxP6meux/dx0CB8oAXytyC/Iwdu5MWCqtPRJ0tweFkycjfdQImKkkve6BxGpqggNFWQ+i2PnZ9UoAhLOrP3vyNIMLIFBam0K+AwOhkzWo/+gTbHjxNZxsrMcNP7wbOTMnQrI8YvfWg2hrqsPuN9/FiVVrECw/ggmTR2PkwnlIm3EeMDQfRrIHpsstIuB2KqSYw05qpB1bpNvZJ1LyWlDMUygKRr8SAKGnAMGAIrgkfIqiv7RcUt0K8RJ57fwTJEpHhUsIG2gazIoynHzlJVStW4fKRj/yz5uPKTdei6RRowDVC9muW8HpjxwD7gkxrSdTIXFNXywQD4DAPWnoCDT64D9ZBWhBlO/agUM7tyGTxLjqG9BwYC88WghD0jOQlyVkz3XVhdyJk5AyajR7meho0eXL5hzIoRDaTpxE9bZdcIVCnLngVy0cNQIwC4bg8ju+Aj07FdWbd6D0H2/CV16OUMgPkzb+kA6XISEkKcgYOwZW4RCMXLgAOaPHQoIXpJpKwCOtMB8uKoF+lhFoEyGGvsyQM/MzjmDVgAEEIU9MG7UJyTDZPReQOLkQLjoxwIDKwf9WrodQ9ue/49BLryJJkjHs4otRePVVcBXlAaYLVsiPlm1bUPvuO9j+/rtIzslG8YIFGHHecqRMnAg9LZv9A+z8s/UTqJvOPkx/Zg4+0WqH+BXOXRRaF6aB1uZGHDtyBE2PP4Yj2z/C9PPPwYgvXAXPhOmAK9lJirdTH0UmA/HL6Z7MVXHUK8lpdAaFIJwIymDpVY1PwpKYl/ZL4DFRDZU1KxhIC2+ccAcJnj9piRB/lEKGip4EQ7UQgsaT0GOpkIMWTL+oEirpfrQe3o/jazfw37RQG4LBVihJbngpjGQAACAASURBVJAvikKPSSVTkVIyGlkTRiNjzAgEvW6YqgpPVhpc6SnQVRkKgcyoFxMROxBzZc2C5m+F3+eDHgpyy+nAUHbkMMqOlOGyyy+H7nVDlWWU7TuILe+vhl5TjykFxfCGNHhNC/7yUjQe/ASW0Qa/FYTsVZBEITDdCz0zBxMuvxQ5S5ZDotoj5OlSFcgeN6QkL5eB5wwsS0LIZXJ5eYl4OZzpY5d1sX8kWwVlDS4KxXEaKJEhhYoDBWNV4mBQXRPyjg7ES5JQebQSTpqjE2LoCalwIJqX+I74W2DgAAJlHvBJXoiN0HwIySrzgEgJkcWJTA2yFUDVqrXY+rs/AXWNmLryPAy79kqguBCWNwmS7kPTuo3Y+cifESo/BqUgD3NvuQkpc+cBOVkIucRJlfgKlLrYiUoQfxsm7thnC4iaFk48R6SrOmI3FkIb12Pt44+itbIco5efizHXXg/P6EmcwUJVIekP+SoSfdznDjjlB4UKqQOtbaVSey+yIQHI/8MZP3aoSDNNCgRBJnRAcxwm3DoV57Jd7zTHW1tRv2MXDq9Zh+DRo0jWNbSeOIa2phZ4VQ/UpBTIOVmYuHQJvEMLEVIVJBcXQ87PBVKTYCkyJNXmt5iUvwDoMuDqlNFiExmintKk4mPRkuN8arBwrKwMWz/eipUrL4CR5OYhqSoKjpeVY+fmLVg4bToKhhULEFRbC+PYcRzf8Qm2rVqNLK8Ct6FD1g2crKmGKzUJOWNH25RFCWZSMvKmTsGQKRORVFgIV1qWqOniTaYvgQad20SpwQxYbHak0P7QRA8wOdPJkYj0yYCCygRAOD0TbRDfdcAAAp0ySOeABUeEXBlMynfn04lQL5SgobW8Emt/9nP4t+7Eos9dgfwrr4A0aiiQJMPQLNStfhPv//YxpNQ0Y+aSc5G7bDk8c+fBysmAzm5EW3mPf7a1EQZxB3xWm+YsbO0qboZDBnaaq94K/5at2PvU0zhxYC8Kli3BlJu/BPfwkdAVEaeQLRcDTD7Rcg2JCH+EU+k7VrD8rBq8D88tsSyxIykczjtmUSN2QTpOdJsnyunG9u8cHROhKuiHRKnFIQNSXT12v/gC9r35Gqzqk0hjAqIBV1IyRi5djKIli+EtGQ2kZkJOywDcbnGydhEpkAjGQrKI/RaU6cqy3IKP0pOqp1w8zb6Un8CWaS8tPYANGzbic5deiqyMbGhMlpbga/Xhk9270NJYj8kTJ6J42DCRSRGg0ucmjKYWSMEggACkUCuObdyE3a++CbO2GpauixAYpWMnJUFLScbQ6ZOQMrIYQZeCgoJxyJs5nUvIa8nJkCRiYQjydJivaYZs0SZH5tnRWZBgyKIPlIHykiUAQh9m0Zn9kQEDCOT2NbhYEeUI02AXQkdh6VRaWloaUPbW+9j6y19hdEkxZnz961BmzIWVRCSgVtTs2Y/t//kAqo4exdIvXI7hK1dAGj0O8KbAUgkYGCytLBjvQvSoXYrTmd1XZ1XrHckjUUDKLnXFFTfJ/So8PyE5CLdfQ2jLVnzyl7/geNlhFJ27FOOvvgYpo0cxWYwWfJX0FZi4KnaqcJYLuV/PsjjwQA4CoW4oNAjY+8eSx0KWmMh47BU3RdEvgvc842yNCtk0oNU1oPnkCcitjVAkBa3HT+Dw+k04uX0bMjwulEyfjNwpk6CkZUJyp8A7bgzk/DyYyamA5LJHhQ5DNiGz3jF9LwUOqS12nQRbPZW0UoQoc/Srs+udWknnE9vBIQACgMOlh7BhwwZO36OMiaBloMHXgr379vKYTElKwsQpE1FQWAC3EGthtRSV4jCEjFiPQYNVV4fgvsOQ6mvsAmY6mo4dQ9WevTBq6lB/8gSCls71zLLS8pA+pgQpdN+585A6sgRyUhrXJ6GUHQq5ESCyS0HYvhw728qeN4yLOj33aRolCYBwmgw7eG87gADB5hbaWusirikERujcIVk6rL2l2PrIoyh/+10s+eo/oeCGa2ANGQElaMJqOolPnn0Oh596Cbkzp2Pet74OZeJ4LsTEU0ShhUrjjcWCWwih2Gpsg9f8n92WhQECmaBdnFickKj/AgjCpVtQ24IIfrQV+599EaU7dmDcJRdi3OVXQBk3Fkjy2mp74oQb1uhn+d7IvwfG0k6qbOTb2qWFOkqhZwgZhgTJiNvBnjgb2DP6YmBPKccEGHQ+acukPtoWgNHczPoWviNHULpuE0o3bUWSFoSsa5D0AALBALKHDcP0Sy7m8t/SiOGw3F52uYPCgwwA6H62DW35dUFoEF4jjnlH1T6gIwHF5t0RdbUuCYIWo0ehuyD6Rtyr/Eg5Vq16H9OmTUP50Uq0+P3IK8xHbU0txpSMwshhw5GZmQmXm9YWwcFgYTdLYU8GgySZwqVEHCCyJOVm68yXsVpbYFbXIHDwMOoPHILSFkDA58OJvXvQ7PPBZ2jIHFqEUXPmIG1ECXKmToFSXAx4vNAUkmlyqjzYtUlY8cHRgnHqUwzACI8CCE4tBkpzTHAQBsD2n9JX9AkgdC980vlpHOIYxQppAeBqZxagyUS40WC1+ND2yhvY/IcnkJSWjNn3fA3uhXNgSl4o9QEc+OsLOPDcM0jNSsecm25B6srzEUzLEPFEU+MTjazbMr+CQs8AoSfqdWKPokIt/Vu5+2KXWP0+2NrCG28cbBN9j+hnjCQiiM3H3ulZr4KAI3Gw5MZW6B9/gu1PPIUTRysxbMkiTLnmSqijRwFuFTrFci2Lc+aJ7cLFnRggdNZJiJd929tEaPfH7M9wOe2IuFM8eROna9zRBkgvsqWQvqZxYEIiPoGA9aBIjxJog1lThZM7t2HPxvXMMWg9VgO9oRV56dlQvBR70CB5FeSMG4PixefAO20WkJ4J09ERCAtg0Rc5uqlOESWnaJcIJXGrnOJdtrqmCHc4fe30Q6z+6DDHbTB64vgJvPDCX5GXl4ecnByEdB26acDQNeRm5WDWjFlISk6GTO11snAYWzgeFFFBhj0s5LhU6bttMiepfuo6JF0Xj6bTgacZLfv2IFh1AofWrUP9/v1QNA1aUhLSJoxH8TmLMGz2HLjzRwBeNzQqDqWItGGCUJRpJQIMUdotvdhE+jQHThNA6FNbOjzr6ZoDvTBpu0vPlmfqE0Doi9Gc0sjkKSQqjspyp4LE5DKD0CpOoOzB/8XB9Vsw64brUHTDVUBOOk+slg934/X7/xvFpo6p3/060hcsRCAjG0HFAw90qNCY1yCZLuHuY6IinRIEQGBXaP/2/r48cuIzvbBAbJBA7m0dpkXpZQokXwjYsx8bnvoTjuz5BOMWLcTM66+DMmYkzCQ3QrKbMxi4mBdzEU6fkFLnBaA9QGDJ6U6AIQIQGJSeAWNSlDe2N1r28ttZCkwoBtDog1l2Atuffhp7P9mKlkALjKCOFE8aFl9wCcaevwzIEmx+4hGAXOjpuYAnWWy0psknb41IxU48nbQK7KobRNjjegfMX4plMFHnQ8zzWCGG9iCBpL7DL7v6KK1NPp8PH2/eAo/Xi9mzZqGquho7P9kBt+qCoZtYes45SEpJE1LsthdUcKksWLIQXxahMi7pxGFUkYhLzSOuQzi3l2XhyTvj0gNAMAScOI6azR/Bd/gwDm7fhvJj5QjKEkomjsPkZZdhxOKFkIYPheXy8NpJoIy0IjikGiYv9mKy9fXS0wQQ+tqcxOdOvwXiAhB6hJZ4IDsFVSQodqBYt0JQA36ceOVdHH7kQShDhmLq17+GlPlz2E0XOnIEe554GoffXo1ZK89Bwd13QR0yBIbqgouQtK4Bfh+C1XXQZYmV96SkTLuQj0h+cw6lA70g98gup7+P7UWq/x6SeDVV2MVZuO0FW8SGolzDMme7hBSRxEipXkT6skIBtGzbjh1PPoPqfQcxYelCTPmn64CxoxFyJXFsmhZnupkuEyE2Xq1uf5/uAEJPv7XzmOy/MmQ8x50ACCKbgeLmBnR49BAkfwChQ2Vo+2gjytdvQ9nOA8ibORljL1gGT84QGIoLmeNHw8pK4YwDSvWjTZF5+kTas5VRxdwUZZYjVTUiVRydESFKLNmyybbRjKhPCA9H9xUUwxgiylklPCMWzJAGi5QbiVAYCuJI5RE01TdwSeOJEydD9SaJMs/MgbDlnsk2zLh1OBH2EHbGHf+aS0nxH/E8QkZJ8GwVQAvB0kKQQm1oO3IIFRvW4QgVMisvh+JJwezLL8fwiy8ERo5hwTCQ0iynk7L2fFTRqZ6Ouj5edwYBhHjOgT5aK4JD4+Cd7m8bnM/31i79Bgg9de04GQbshiPvAWup0pQJInDoMDY/9ASStryDoRdfieJbb4VUnA+zzY+9zzyPHQ/+FgunTcWIr94AzF0BKqWq+X1AoI03g/It27F9/WYWPLnwpi8id8IUSApVAnSQvTAPs5d7oIfQWyPG6rye2qW7jj972xLhareviRG1chsU33bziU1FCBYnhAHuFj+0j3Zj3x+ewsFDB5F38QpMu+mLSB4+EgqI0MpsOoQkg0NZsR3/keJVfQmfxAIIXLmywyk3XPTkFIWy2oOE/gGE3oy7jh6OjiEgKqBEgEtIoAPEx7MsA95gAHXrN2Hj8y9iyO71kC0PssfMQMnNN0OdPxMm8UL4RG/AUCjs52F5be5Z1kegfrVg8iGBYvq04QpBLd5oo1SSO8BIW/1UzJp2WRS0ySsiJVB4PGL3uqi34vx16ikIcCoE1ERdSY2UHElISQvBJbvgTkpiZiMJJrHsALs/FP4qu+Xh7ANKvw2wMqQEN9evF4DHUAS4UA0BkoKqBA+1lzgMMmmF6VAQglRXB730CBo3bkXNO6+gLKAhd9kyFC07HwVz5sH0eCBTlUkK99hekO7WkVO93+M1ZgAAQo/bcooH6s0ciItdzuK29Bsg9HRgsvaBTMQeOtWz/ApkTULb/sP45A9PwLd+HYbMnoTxt3wBnpmzASkTqK/HlocfwO7nn8FVX7kTGVdfDSS7ULt1O/a++zYC9SeRbJloPXwSoTagcMkCTLz+C5CnzICHirEkXme0BYTLOHKuFABPZKZQbLhh2y7se/hJVO/YjglXXogJd9wBZBaw90iXdbigceoY3cU5W9LabmdIsm3oVEvxXAawFi269umVd21Kk6X0XLqGsiREuV8iwYptJATF1GE2B+A7WQtXoBWUZ8+u9zASjbgwaNQHyMs+tBCujGxumyhZTcWrRIVAuqfJW4sKqkHGhYgk2lDpGQSzn1zx7UFNZ1BBbeZnNUTqJ3F/2LNCz2OnxzkVSzlLjt3mjpXExkfm56QFy2AynmWIDal+zRp8/MhvoFQeRPqomSheOB/pixfCO3YsrKSUSCE12/nQcauOBk09AVAROHBqd1BfgV6nSULgxubctANRYZDXNQBx7kU26/g6FSCLvtbZJEOhEFrfXY3tzz4J/5498A4bjhn/dCuGLDsPWlYqTJX6V4KkuG0tGUoDJQIjac04WMnO5ooZnjn18hC2AdW/sYRGA9Vi+NGPfsTVHKOLNXUOp53RS0+i8bYFBgwgCLnd6FQkGVJQw4Fnn8OGRx7BgsnjMfS2W5A2fSwMTyqrr7Ud3I8PfvHv8G9eh5lzFyFp3iK0GH7sfvN9oLYRKV4357SlZeShYN58FF22Eq5JY1ltz5lkiYF7Bo91WuU41Y6egchfBgtgWYYu4vuBALQdu7HpwYfQ0lSLxd++E+mLl8KiEBNtd5IOF7Hjw7U1xObvFPqNbDdih+TUW/4uPvbZKXCitDi72km0hrJtyMFsSZDbWoHGRlR+uAVr/vY3pJ2oEqdQaqNJm6nYGgUXghZzFa0mUDh7JsavXI7siZNgpaRBSU7moj9UylQ3AVWVOU4tMj7JlS2U9wT1PnxuFvfmjSy218Hh3nD76Y8ofCEY97Y7jWhv4uN2DJ/TBW13uUHpeFTdVIZH0wF/M+o+2oztj/0ZwcoTmHzhUhRefTncQ4thJaXBcCXZRD1hRvoOSj/sXDq992OS668wr6grf1DfibTR9wxzRxxSrh0a5RafAiB05Jz0BSA47SD553Cbgm1oXbcVNW+9iUMfb4aaloziZSuQt2I50saPgaQQSqAy16JMPdmI0n6FhqUIZ0QAVl/sbonxTMBXklBRUYH77xflni+//PJwsSZnvaX5mXidPRYYMIAgTjSmSAOi0widnOpq8dEvf4E9b7+D5Tdeh4KbroQ7PRVmUwj+QycQOrAfB/7xF3gqD0OSPDgpJbFSIi2gsy9ZgbQpE6BJbqRkF0AdNhLIymb3Gy0mNFDj5Wo6e7r7zHoSJ9orWm0vUrQA2QsgE1GbmlH+wt/x0RN/RM7wPEy//UvInLcMSEnjUr4up+6GgwY4+O2clelUJOLqlEzGx2Wb3MibEY1Vu+ano9fBXgTNh+Z9B3H8vU3w7ytFw5FD0EJ+pGek8YLJan186rJZ5va+TqWLg82t8DU0ILsoD0nDCqBnZqFg4hRkjB6P1JHDoQ4ZKrIhXCRYTLoQIs1N+MUFIa5jKeGYmxFtEDYhmDYJAgKOa505c1xGXaTLOW8QPnL0DPjZ5RAMCgcGQ9BKD6PsrddxYvNGBKsaMH75Sgy7+gswxpdAVb2ceEf8P6dCMoEiEkYjC9P2Ff06lQehay9AB4JnnOO6p1orOr8X24PQ/rrY2TOx7OD8zgEZ0W52krKWfRpQfRzHXv879r/6Mlqa/Rgydz6m3XQ90iZPAJIyRJhCsdVqbYBLgEEJq2H2fu7ruo66ujq0BQPIz8+H1+3hcs//8R//gRUrVuDKK69k4FBbWwu/34+CggKkpqb2/osSnxh0FnDGsmRZVD4t8uqLm06A6/bIvuN9aLGgOCNVXYNFJ38L9etWYccDv4RU14jZN/8TUuaMQk1pGRoOHsOu1R9CbmxCJoLweiykloxB2vipgCsD3rxsFC2dA4woBGTKXKBbJpFgKZcE5mniLM4x2eTd90esk0pfbNOdXbpvSWfb8jmhD2mHZ1pbnBElBqit3kdkMj5h0Wgy4aJNsKICe57+C3a/9ipSiwqw6I47kb1wCXuSdJfIqWe3v334FhuhCFcIgEAudNsfzqXGI6QyisFT6ppGmvhUvloPwV+6A+/9x3/B2HUEqicFBTOnonjBLGTNmgEPL5D2lzlzwnkQI4SWsiM4umETDq1fh0BLA3TdhN8AkjLzMX3xUhSddw4yJo6HlJcDTXFBloVSJPe5DWzCoYHwGOi8GXHFwrDXjoxk2inFJkjESMT6abLY5Yrtk6ZwjAvtA5l4H/WNaN66A3tfexWVmz6ES1Ex8bJLMO66ayEVFgHuFMeY4rG5WqqotipqNDj+mvZrTMdTe/fzoD1A6P762Fd0NQdOFfvuKUBw1sGuvDq99WYyYKDDFHeJDlRX4+ia93H43TdRuX0niubMwtJvfROu8dOoyp3gSDAwE+EiVpSgstRdO13CRorVNgIIu3btwqOPP4Zzzz0XixcuQjAYxM9+9jP+N4GEffv24Z133kFxcTGuv/56ZGdnxwSDvemvxNrbs7E7EPvAgHkQNErrsdOa6KRmNjRhx4M/h/nuq0gnbZGcAjRJrTh2/CTaZAVmcgayi4Zh6uwZKJ42Ca4x4yAVlwCaB/BIsChliks422ieip44/KSBUhbrzahPXNtrC0Sva45ksqhpI95hNgu5PoMarPparH/sUex6+R8YUTIS51ImzLzFCJKELRHGiEBox9p5q7FjtaJRguvgMOVN0xCkMbvWA9UW0C0NqqnCPHoCe59+HKX/+DvyCoZi8lVXI23RQkiFBYCbFACjXdFOalsUKYE256ZWzgDQG2tx/NABbF+3FqGjJ6A0+ZCS7ELhrNmYdvONcE2ZCINUQk1SiyRXMomR0ym9Yyy+PUCgd8lj53J0j5ntbsAwAlAamoHqGiAlC8in+iYyNIs1AQVxmKupmjCNAFyNDah46TV8+JfnEAy0Yvj8WZi0/EJkzZoHqSDXjnez6EgYfJHqIZ9cqZ20aVGUSOk+u6DXg+Mz8gFNEiEDCtRw/5gBmGV7sOHnv0TdvoNYesvNyL7+RujJXiiyl/shxI4wE272gLVPDuqtV7W1tRV33XM3XnjhBcyfOw+LFy/G1q1bMWrUKPYcrFmzhr0L//Vf/4Vly5ZBoVBZ4nXWWGDAAALFQSl7gWOJBmDW1mP9f/wIykfrkcmlW1Phc3uQNrwI3kljkDlzGnLGjYeSmSOklBUPdAIOkoWQJLF+Ijk2xUvkGQtZWDoxnprMdNb03ln/INE+BOdnO+/djrKy/gXT6yUYvnps+/1vUP7Ga8gaUYL5X/8mPHNmQqbUMPI4mJYIPYkoQyR2T0NSFjx6GlfsK7eIb0A8ABLGIce7Cwj6UP/6m1j/m/9DSlYqFt75VSTNWwIkpcNUXJDCgNUBCTHGIc0B2s91EzI1RGuB6W9Cy769OLRmPdreXcVjOWXEMOQuOweFF10IKW+Y+H4u+kfyRJGoflenVRYjpqMku04MmFYQZu0JfPzwn3Bs3SZkz5yHmbffhtRRRdBlFVQFgDdzPvmT6mEbsGkd3vrF72A2tWHeLdcj64JlkLMLYCnJsFQZMns0QhznFmW4RVhB4BKFvTLkMaSso8SrbxYISESJpZfI/uIgkM+Hsr88h9IXX0RObi5m/eAHwISRCEoueCwXR8roRcRaClcJ1dLer4lOyOOtd97GXXfdhdIDpfB6adUVXBAiUXo8Xtx991248847GSgkXmeXBQYMIEjE6qW4rO32klrbcOydd1C5ZhUsXytGj5+CjKnT4CkuBHIzgfQUrvEuzkv0OaciqhbWJ6eTXSS0LDTWeEJ0W7yk95Pl7Or2M+NpBDlQbOQiKUCcxJm/ImhwYrMnZyp7B0wY5Qdw+Km/YOsb72PSxRdi+u23A0NyYHI1QeGudXHqnog7MI/BFEI94j0i8+kI1VRjyytvYOzEccifMxkw09CybQP2/vGPaN69H+OuuhLFN10LM7cICp3uidNIXt6oUFtnz65QcCJuAmcs8MHbgExqkSEdelUdrB07cfyDtTi0bi20FDcKL1iJCVdfD/dIqg5ocxAo+6FdmClGvNvOy6ewBNHXTDMAbc9erPreT6DU1KL48ssx5mtfhZKdwvLGMpccFkJIUrAVoYoy7P/dA6jYcQBFM+Zh5jfugFkyApblZn6FxmQ4mpMhuy6CXTGAxMmYe0B9JH6n9ECf4MwYkQPfSh7nXKCKUk4pPETqchZQXYfKP/8ZB1atwrBlSzH2lusgFRZy2mi4lHo4fzay3vXWg2AYBpp9LUxMfOyRxznEwICZPHKWhcWLF+F//ud/MGvWbKiq0pN6WQNvxMQ39tkCAwcQyG2r0CnNllk2TFh+P8z6Bi6TKmWmAikpsFwilsZHPGawi01CVGkUJxFn3HONlHAFQNu1FbUq95Tw1GfrJT54Wi3QHiCIjUew8EVYiWVu+VRFLng6J4cg635ou0rx3n//Cq2NdZh665cw5rylUHKzoal8BGfRJYfwRxoLLssEhcCIsMfpjGYIZe+vxYv/+QssXnEu5n/zBgSOt2HD//0a2t69GDdvAUbf8EVY48bAIPld0lrgNF5b28FOcYwMRbFAk3eLN3nDEOCANm8iNNJGykNbBtoCQOUhnFz9Ng69/x5OVNdg3GWfx7RbbgFyC1mepzPwiAEQGEFQuqedumkGgJ178P6//gTJqQrmfPceuOYshKnozHOgY6fgZphQmhpw6G9/x+7f/xqFk6dg6i1fQtK8BbA8qYLESMqHlgaXLdJDTyAAm3g+ieepAAlCNTUByPs6USizRpcpmCbCYCr1P/0Y8qN1+y6s/r+H0Ha0HDMuugSjvngNMKyQtUOYSRPlgHPCcr0BCI4Hge7z9ttv4567vo29e/fadW4kTiWnlEfyHhA5kcILsQizfX32xOc+PQuEswBNUx+Q2UtpYlTemb6MSFd8diPREU2kL+mKzm5JKt5Eld9ooeYFhqr1MQigRScITUoKx1aFUp6gQdGmYYeYI4k9XS5M8SE8fXrd99n4Zj6BcgaA2GrsPS9cwpkWMBoVCjH9WbJXg6GH4G7S0fzGKrzzxOM4Jsu4/I7bMXz5UpiUISMJpUUeMzJJL0lww4BGYSvBBgP0AI69txqv/ehnmL10EWb+61ew/ZX3ceDJZzFu3GjM+MZXIY+bDLhIIZDy0F0MVIR7XkwnAWLFCi1cvKLKJIMJe8YROOEKiTQ3KEqmWKBiQlSbRG6uhrFxI7b88U8IwMTiu+6Ce/ZC6O5k4f2gz4W9FZ05CCRIxLRgizYVC5bWBvmTA3j3B/8OZHtwzvf+Fe5JM0WZdZugSWCCTofa/r146yf/ifSKI5h3yxeRdtnnYGUXQHJ5mRhqGRpUlfwSRITzsEePgL8NcWyxYdEm7p9+MOk/GyO966ckgKDJIoGRc0QMyoilBTQIyR9E06YPsfPRx1BVehQTbrgGI2++Fu6cPLicQcZCYTF9WfbY7Pq7iQxMmz6NpLraOtx/3/14+OFHmCRMc2/JkiX45S9/gZkzZ4nsHZOyxwZPj7F3MMyPcWZhREIr7H22Zb3FXI0OazrcocHzTAPVkgEHCGz8KPdrGJ1GbeIEEcKpPlELIHsQwmlN0YuhGI1dsYMTHoSBGk6fzvdw4IE5J4J3r7FypgGvpkOqakDVms345Mk/oMkwMOP6L6Lkss/BzE7lyp8qrWSs5qlyaIJCDC4zJE5dzS3Y9NCDnBlx3iVXY9Ttt+Ht/3c/AkePY9YtV6H42quBtCG2BDEx9hUGv+IMLVT5xXmPPAsCJ5AmA23EsQjl0ae6gCTD61SurmtA7esv4cM//RGpo0sw5+5vwzthPIKU3WBKUDl1WHybE2wjLwU5o1VHN8CiCokapJABHCzHO9/5FtTsDCz97g+gTpkGg7iPmgaTkplUF6z6Buz96zPY+6fHUTh3DhbcfAvUqdMBrwdoZxrBtgAAIABJREFUasLRPTtxouokpi5eBm9OEUybgNhRByB6RAy0xPmnMxpPz7fazih7VEXWOj4WEUBu8SG4fiM+evj/UNPcgAXf+A6GXnwp4CXwbEKRkuw1NXIOFCRWm0/LWTqxi5qx9oG94wcCAbz6+mv4t3/7Nxw8WIrk5CR8//vfxz9/4xvISM8Ir8N9ya46PZYj5U8dbgqdGaQxIkGTCcZGJLKJL0MrB/meRaktOpjaBGiJrjNsD2WsWXu6Wj247jtwIYYYAiedUyFFXEsgucgJKVost70LK0plrwf3j5g+4UEYXMOwr60R6odODQeh1EkT2+TcffjaEHzldWx46TWENAsTLr0AI678HIzcXFYGFNIHglJHRDuS/ZYsFfLRarz4vbuhHd6Pa+76LvyFI7H5p/dBVzw451/vRvKihdBdxI+xU2rtEwgrH9opfsLlLqrvhdMr7U071tM6IIE2d16wDBOyocEqLcXGn/83jh44iEvu/yGSl58LnYRxLLpOIW0lm0Rpe1jsUsyCcUhZHjZAaA0huHoDNj7wS6AgF+d+//uQJkwQXhRJSAJbDdXY+fcXcfjvLyPF0jH9y3cgf9kSlrqu3bMf1R9sROX27ahRTSy/8w4MW7AIlidCFe6qFxMAoa/jO3IwcsIFYRElFi6yvVF1dQh8sAqvPvwIMkaNw7xbb0XG7BksvqVJNM7tIFCkXpSo2m17uhwQcqpxSevysRPHOcXxkUcewZw5c/Dg/z7A/2fxMlt9srepnH23TPefpHRbhaVAZeYHCZ+ak/LsSL3bvyAXHsWsFfIs0r1FcbDBBHi6f+L4XzGgACHa2LHyjimcINxCETeQ+DkqmtuJ8NQRJFCnxlaWi7/5Enf8dC1gjw7Ge/YYIY1/cngTUY5UCOvr0PTae9j05LPwu1XMvP3LKF6+khXpaO3wS0F44IYLJld6kE03lLJjeOXb/4xAbSWuufdH2Lx5F+reeB7FKy7GlNtvgzxqFKcRUlhLrCUiTMYEMooXO4svO/ftMEPEn9nOZB3nBCfkcPyYcuAtSLV12PGb36H0pX9g9rVXYPhtt0LOLQQJ6HDGDq9vjs9CLGsMW+zQAQMfS4NcU4+PfvYgGjZtxJiLV2Lo7TdDLciHJKkIQII3EEL5C3/FJ089AbdkYf6Xb0bqgoWwQiEcen8N9r/6NqSTtfBkpWP4Bcsx6toroBYNBeSOMkif7og4m7+dsTCnPNohMtZ4kSGR96emGh/+5rfYt24N8iZOxsLbvor0adNgkeAWcbrsVZTLoDvhum6M5Wz2InQgIxgKYfUHq3HvvffiumuuZe5Benp6xOsbZ/Gq/vZlNFgJB2k6FNWimUueBE4Jtst029m+/PWC+zEgUfj+Pu5p+fygAghc/KRDZ3QPEBx/g70Q8yRKAITTMloG2U1F1op9EuA6Cs5cNkmsk7j7FHiAUlaJHc+8gNamJky86BJkz1sE3euyC+QEuZiQKmnQKHfc8EA6XIHXv3sntIaTOPf6W7D+b+/Aq9Vj7j3fRfrylQBJfPM+TMcSAVCFfLFDPtCF8BKP514CBIP4OASJhXtTDmhoWrMOOx/8JYJGCPO+9z1kLiURKBU6cXUcYqVDSqMwRlieWsBty9Rg7NuPNT/4CZSmFsz/5tfgvuR8SF4vFFo5JaBt3wGs+8nPoFRUYNr1n8eQC1egrrwU+99ZjZZtnyDT5UXBlEnIXDgX6TPnQMrPZ9VSSu2MVkYcZEPkrGsObXrRUsw0/kn2W9VMBPftwp6//BkH125E2vQpWPDPdyJr7HgYxJXhdEdxeo54dExW5uRIewyeSPQhjn4m+e/6+nq8+vIrmDZtGmbOnCm8EKeQv/40O4AVR5mLI56RQn5O1U0xX03ousYEY7fqYW8aTQdiygnejCBCJwBCL3uxN0zYU926oxfB0Y7vTXMibXGAAv2/9wDhVEpqPW1PPO3Cm04/2N+DqS3OItKf54leiCL3oU1YBlVHoBfn3Ued1OlkQH/UUAhGdRX0UBDunGyYqRmwZNUu2qRDJxY/0+kMqJobKDuE177/dSgnKzFj4QrsfmsDMuZPx+zvfBvSqNGQVFo8NECiguMuliMmnECLC2VEUAEnZgdwNo4jHBOpARE9njrahMRwdIUCDeQOVWBSsPjoURz+/YPY++77mHnFtSj8+m1Q0tOgKSSeA6h2jQYG1zZA4F2AUy+pZoUf5a+8hB0PPoSRYydhyjfvhDpjmi0MZQG1J7Hufx9E49rNKBk/FmMvXo76mjqUr92AxuoqpGRnYfplFyFt3hxg+EiW9hXpd+KMFf36bIy7nq4I7a87HWsMQWCKrLtp8dQCsPbsxp5HH8PHW9Zh8he/iJk33Qbk5HCdD8MJS5CoHANr9lXxRil0LE79EjIMFkg8iUiJpIlwOp6pu3bEej/muKPwCh8SbMUwBvOUSSeeWQoF0HToEEK+EAqnTkbIS2maMmhWCz+LQyjuvQdhsNilv2tvnzwI8Xj4vgyCrgZGfzees7EtZ+MzdRp3zmmZuQfiiUVWizgVczkBBytyvSNS+dMZRAj5YlFAjDZxzp4hV3xIhVlRipe/9zWkV5QhMzkXVhvgve56TLzxOkh5Q2yVJeGfMKGC828sCe5QEL6qWtYJ8A7JAdx0whbxWcGNiM0ob9dXpgXOzqFHMESZZTnoQ81Lz2PtA7/F7GlzMeT79yBlRDE0l4uldFkPhEXCbMcGxVKZuUnAxYTs9+Pws3/C9t8/jDmXXInhX/0q9IICofug+9Cw6i1s/s//RgFUTF6+AkerarB/61Z4Uwsx7rzFGLJsLtzjxwJZQwBXCi+3dLJS2cvRfmOJ19oQr/vEYx58mm3peGjq2BYKMzGDxhSBAznUiqZX/45VP/8p0oqKseju7yFpwULARR4zsVVSqmQE1xk8d8LAujuQEEVc7O8hJh5949wjZh9FAwSOz6gMkgjKU6ZQ/c6d2PLHZ9DYZuLK738XSkkhS/WLUt6k9SHmdURtJ54t7v5en+a4C9t1oNIcuzeHk0XdkysT1yQsIPz6HIW3SSvR1NMwj4UzHGyfEi+EFiRD6GnQ6Zr0Dzx2uWfFJHejBOtIOd6+91vILt0Ht5yC/JmzkX3Pd+EeM5wXWkN2IQQDHorNcl0DA/C3oWrdenyydQekjGwsuOYquAsLBBmS6kcw258rO3TbdTqFRejZDAIfgKqEENr6Id6+7ydIr29C0Q9/iDHLlyDgccMtuYj2IMpBO2mTXHSKUiHILaxD8QVR/dcnsPl3v8GEy2/A6NvvRCg3G26jDbWb12LLrx9A1t6DyHYnIaSmoMVUkT5pNPKWX4yCJQuAEUUwZcqcIL0EIESijgyoRGXLxOv0WSDMZ4kiGEZTbgQStmVjKLRE2PBYKXb87Kc4uGotJl13LSbdehvLalNYikRHI1ogkdoZTursqZ7EOaVTjYboYnin7+n7e2eaB4JcQEAasgrNNOGygkBTPXY8+gT2vPgqhsxfhOXfuQfKcBKasjlFVCKdsxoEWfGz+uqTByHaWHF1KUa51PvSJfFsS3+9Eom2xJ5S8bSLTQ0Uen1RKcvhH9nLbrCWBl1Lssy8T0sSM/Np8SW5Y8UKgQVtLdIHtCCXncD793wLhRWlCEHFhNu+BPXGm6Ekq4Ds4WwG8k64GprhqyyFXl+LlrIybP/HC2iqa0X2jBk479vfgqtkNFyURqnT4cXgU0nsRMeIrUQMVIPMwEJGiIqcWQGoNXVYd9+P4du8HmPu/y+MuXQlAgoJMFMxJ8G8psWfvAnsLpbsstSU9HiiDkeefAh7//YsRl99C8Z95RtAqgcNH67HtkcfhvrxNgz1eGEoKvS0LHimz8bIK6+CMrkESMuARlkTpgQ3eyYAnUK7ZE9So6bn6uIVz74eTPOxvyfn3tjlVABBjCXxl7K7SA2TxoBiBBFc9Q52P/IojtVXoeSW2zHtiqshpSbDVBRwRquTgmtn+7LSbQ+8B3SJk7VwuvaBePU1jVmLNSREBeEgheMUBWpTHSrefB3bn3oaaUEDs771DWSccy6slAzOYqBXWEainxyE3vR1d+AsXnbpzX1iAoSOpJPe3DDsmmhHXKFEcJ5WQq3Ntr4glXU8gUTl69puY2eSMNGkD3H5eDwPD5ouKlbGImn1xj3UHcmnJ/bv7h49XdS6u09P2uLYqhNDP2oGCNpQ318cDmVsL5j8kTyXqHvyVzgUJeGKda4jgMCLHYEIyYSLT906dMuCevgo3r/nbqRWlCJj+hSMuP0r8MxfwPUHWHgoBPj3lOPoe+/j8MbV0JprYGhBJKdmY+T8+chbugjps2cC6VmC7GSXaeaF3K4H0dWTm5wJIaAPC0eS0A3VX2ioxer77od/9SqM/slPMe7zFyIoqfBYbs52IIIVy5jTVCPSGrsTdDZMy849WP3jH8JVdRLzv/UdZF+8EmZDLT763wfR8v57GCPLCKSkoa2kBMPOvwRp8+dDHTEM8Doy56LkNLfHJmTSd/JcjOFA6MxZi9k7YROwR5faTamdokhGh5fo7c/Cq+P8EyXDI/wVXleoVgjbiYABj2JxUubTLoW0ALmpDidf+hs2/+FxJI+bgmXf/g7UsaNguhhC8rhiei/X9iAw2hkgdLUWnGoN6EnlyK760en5Hq0Mtkclep3l9vKHxZ1IdCykhFjPQDG84i1/HU689Rq2/uVZyCELUy6+DCOv/DyQn8+8JGFp+/M2E6Erno3zHD1dE6OfO5Zt43GfvtzjVHtbvz0I3U9aMZBpoFPqme3hspmzIvkmvCSECWa81IkJEH7TQXaDZ6GgTnZSgJyO4TQke4WM/tmx0+kGK933R+SK09UWnpx2XnTHwRcGU3GRXAsHEk7x2EIPgBcNruEgxlz0KKKztofK6RKYoJIhR47hnX+9F/KxI1h2zz9DWbkCoCI1ugaroQktnxzAthdeRvO+A0hLciOzOAdIS0XhrEXIX7EUyM+DSXVEyP3PY5qK5tiKSfYYjzU22FYWiS7RRVSjgc/pQuegqQYf3P9D+D5Yhwk/+glKLl8JXfHCTSWoOYQh0iLpGegU6TJVWJKfxXl9W3fjvf93LwswrfzZT4HCHJS/8TIO/vHPyA8EICsKii66EMnLVsI7cTqk9DQW2oHkpGnGrtDHolCddoToQI/TLT0LQ5wanAr1vlMtst2974zL3i7UPVnMu5tLPblHlxtnh3Wm/RpDg4bgm25LkbNgOCQ9hMCeHdj4k5+iubYB59/7fSSfswhWkldk5cpUdYTSaSnjhmh53XsQerK29Acg9OT+4XXUFs/j2WWnYQpUYAMm+8KQFISLC7q5AF8Ljq56DVv+9ATcQQ1zLrsSQy65DGpBHmcmUa0W0lXhooLO0nIK7ZLetPdMvXYAAIJYHAISMbtFoRw+INGg5/AZcUVFOSbibocHAP9gC+FEpeGIhXZwvJyJSjE5Yvb2xmswOJ7g9LSC7EIsZyr0Qj/TBKZ/R79iehA6Hh1OffAUm343K5KABO0BgtOO8EiSdXgoK4FO60EJytFqvHf/fXDXnsTKe/4FJ5OTUXf8GDx+P/wHD+DEzl3QWlowbMJEjFi4AEmzZ8LMSIORkcbCQUGSp5VVLg9Niw0nSwm5OgGWbXuQfTq+LMvFWgrC5SZqkSiGjqSWRmz6+U/h27gRE+/6AQo/txya2wPZkFk+WicxHD7Vi5oPOisqtiHJUKF9uBMbf/ZjZKS4sORb30H5wTJ8/PzTGNJUx8V98hYvwsjbvgy9cBhAHgnK3lSDIuziFMayPX3OHk1SzrTTyHL7fhUpxh07snuA0BEwdd5wO9+3O29XrNHdExDR3ayIdUo7XW1x5hD9n+ZQp++mbASWU6YS5eRFoLi5yuW6Pa1NWH/fjxEoLce4Cy/AsOuuhJGTA0vxwuQwFPFUaNw7WTzdPXn792OCnt7dos9XOzLjKSkpQu2RT55izwh7ECjswqk8EqwWH6o+WI0Nj/weUqANi6+5BnkXXgwUFTE3g0IvXGeEPCtOjDKcMt8jn0afn2UwftDp29MMECILA7HEaaEkl2u0shpv+HYRppBdh8zWnxPXhaGcMONAIdSedBoZkcDBjh078Nvf/jb8kVghB+fNvriA+nP6iH6O7k45PX3mzpta5wlEz6lpGl9Keu6OZKvz2b4sqJ3b1xMPQtcAge5H245JRD7KbiDBoBAwNBBE9pEDKDEDGDZ6DEqbWuCvb4RX15GhKgjqQVS2+dFaWIDA0JGolr3wu1zwSW2QaXclF384RcohUgpmdCgYCoMmJ01MPJdAQxrFSDmeTFkJtPlLSDVMDPU1o+j4MeQ0NWBb4Sg05KahyUMiRS5oVGJZtkBKji5aDyEK/MiyAXdIQkFjEyaePIwRigR5SBGaGgNobapDja8BJ0wZgVElqCssgJmcDpdO1Sw1BDh2S+5oR3yJfqJwh+3JE5azZ2x0Sm4sAN8zgMBW6DKnfvAcDHoyT/pyTSzwQsDA0T1wiIHRHkoubOcoejJoUyCT58fSkRHyw7X/IGaENFjeZJwozseR1BQEpSSYJA0mGzR6oMl0cu75Jtju+/vyoHH4DNklOzsb//Iv/4IRI0bYuMBZD5wQQYj5OfAFUbF6NTY8/DuktLViydVXIevCS4DCIoD1UGj2s99FhCttZx+fPz7rHgTLIsrKqV892dQ6T+wOi4JzWGLrGyIHzUF8RJyhqnOGvQgwTyGi9xXpdi4u311zuxXu6NvzdP5aug8N1NWrV+Puu+/GDTfcgOTkZAFkokIN3TW4u/b0ZDPt7h6nXnwjLezuPj1pi3NCXr9+PWpqarBy5cqwXbqyRV9AkPjMqcdDZILbo4j/1941YUkuBgnERUgygUJNR05VBZq3bkRyyIDblYKJs+YjLT0dIUVBDQxUuRScdLtRTcV0VC+C7OY0uHIhbduGqcOUyUsmNN6dMUHj5aWXXmIFuhUrVkQBJ/EcQQVwG1SEDNBp8ZckpARCUPbsQ2jrR5hTXIDji5egNklFq9sNQ5e4SioBbUrdJBepgEQ6vJDhNmVIJyuQvP4dTG0LosGQIBcUIGfWbJxISUe9y4XmZC8aDQ1u1Q1Lt5jDYMkeWAh1AghhgOeo8UUTi514eSfPz6n7iPrR5/Phtdde48V+7ty5DCrbv85+gBBrblRWVuK9997DvHnzMGnSJAElo0KYDkBQuLidXVmA9TeAZCMA74mTSF2/EVpdA1pGFQMLF6AtKRs6AQQlBJdpIKjIcHU4eXXlJYmHB6a79bAn75eVlfHB7KGHHsLosWPC80gcQx0QG2IRJP8nB7HmF7+CdawCc6/6HHIvvQhS/khYKqXjCCkkNhilP0d/eQ+91d2tmQO59sa7LafJgxAVKnAWYwIIoRBCjdUINVTBaxkgbGIobnjzCcmlAG6qCEblylRI1Hk254QWea7+bJNwwovUIJD2JA/CqlWruOzpc889hyJyWUUBhJ5MqJ50asdJM5DegO4mbFeb++OPP47S0lJ8j9T/MjPDi1tfnjd2G7r3IIjhF+UztG/EHAmmJVA6oSD5hViZEPDqFqyGOvgP7oMU1KFKbrgmjYGSlAwQo58WYJWdlwwAIqJBtEHTv4hEZv5/9q4DvKoq6677anonpAAJgdAJvYM0KQo2BBR1bGPviOW3glhmdMYKCoJSLCgoir3RWwgQuoBA6CWVAGmv3PJ/e597k5f6XiDJOCP3//jByct79517zj7rrL322pCpeRS9P/VNYLEh4JbdmDJlCkJDQ/HII4/oqRcPps2kMQtAsUkxmbh00eZ2I2ddKpa8+TquunQQYm6+CWpIiGhRrdEpn1teChEwn+vJDMYNP0pxyBIKDv2Bta//A357MhDRuiWajx6O0AEDgZAIqBYLXPzxBEoU/W2sINAk8tJCQWgE3dK1V66BmufTqaxBkLgeveYrOzsbzz77LIOmMWPGwGol2vuvd1VkH7dv34r3338f1157LYYMGVLp8MOgQJJgoQMXx0sSIHLCAVZJBk6fxdHp07D35x/R6apRiL3lZmjRiWy/TCyTTVXhNEk852obY3wB9efzGm8pHPp5amoqXn31Vbz99ttomZxceiBTVBWSycI26wR+lJMnsOujBdj3/a8YcOUoxNw0Dlp8LGTJLozSdDq7rPuqOC8T4GZfEY/y0r/ebKQ4VOftnisbp9DAypoK54mTWDvrQ2SvXoUoWbTm1cJD0bhzR/5bCQpD644dENmiBRAeDs1qATh3XWYvapzGDFRWd5vN+T1+Oi1Tr/SpU6di8eLFiI2NLQUIVSFHXxaML3fyZwYIvPlqGmbPno39+/dz1zeiA+v+8g4QytTvZa+tqBWRNIdui0ybPrmpCbMU0RiMlOISzCYzVNpATSahIShVTIsArUcVnRSj4MKNkfm/CRxQ0xjCFQQQJk+ezAzCo48+CqvVXm5YuL+D2OW5dwylD9idsbAQR7ZsRlxCU5gT4qFKFs4dC/MlHQSxc6RQL5Cix0J0s2KC5nYgf+cunN29D4l9ekJqGgfZj6xlyTVO1NGLVtWkaBcRscwkxiPF4MEMlO+weuEA4dSpU+zxf+mll+K66677ywKEUgCmzykCCNOmTcPYsWMxYsSISkvIgGPcAZqYV9FDVPcOVGB2ycha8DE2z/kAcclJaPfwg7B37MXAlTqMWjQT61WI+WoIgOBt8+eZ7OVe6OdpaWl47rnnMH36dCQnJwv9lzE/qTkTrZns0/jj44+x64sv0SgxEb3uvgt+fXpDC6C25WLzJ91OxYvAgdED7iJAqFOAUJlKNDYyWVFgLi7Bti8X4/iKZWgsO+HvcuBMbhYKi87B5XLDag2BNSIMUmwMYnv1QGz3bghr1QoICIRE9Cc7xZWdRv7TokCaqLRZEAX4wgsv4IsvvkB8fHw5gFD3m+Kf7x2rWtCUL6WTDwEEahEbHh5eQcTpS6qo/OKt/Dk+AIRSwUu5epnyIA6G+kU4EhqkA23WpKKg0xj1bqTtl7Z9QeQaShkCFeKEzWWARqWV3kDWMytq6DKIbSKAMGnS47DbywME7jinn+aoHJgcGPnOaf3w+1PFAn0eUaKUbyZAIQSDXIXBm4SwZKLYZybdg6rC7CJ2wAzFKsHEtrvEcmiwiV2lNO0igiM5TqoMMMowAY2N+K/y3VUrBlhRalkOMvhAX2dlZZUDCDZb+SZQ3jYNX1eFL4yet/eqr3up6nN37NiGd955B+PGjWOAUPFgIKrDSDciWHKS5UlU9UIMAZ2iKV2093ese2kKzmSeQM9HJiH68quhMgNGrxbzyDczIF/SPN7WdVVVLhW/eeX38GRWBIOwjpk40n6VAgSjWkmftcVrNmDL22/CnZ+DHnfdgeBLL4MWFg6JvA4IF1PJsedHc9+G8jq3v3on0jpiEKoP1KUAQdXzO3mnIZ08AWfGPri2pSN/1w4UHM2AXXXjjJUelwVnXECROQB+CS3RcvBgNO3fl+uyTWHB5fTR/2mAYIgUly5dygzCokWLKgGEiuK8+gouvmgDKiFlH04N3oJlVYifviN975kzZ3KK4ZlnnmGAUP7yFkjo1eUDUlUAQXjKV38ZGcYKBbWlv8DvqTey4e+iAwBuXqNvnCz4Fj80XFgFwBD8gv4vXVPDdLwuxKV6dfqfqSGOvmkqssInn+oAAkkD6VTDojG+N8FmUMmhEE3RRkDnewsU9kygkxCdG/VyTmIRSL9D4IH3fYI31MpWpCJUk6gmEp671ExKNLOhvg9UG6/oDAY7RHKrYPEMPGGA3sOyLHNTHg5UqmKoXApZ+XllZmbWyCD8mZg3uvv6YPCqig3EIBBAGD9+PEaOHFlp4DwBAjFCXPtiAASVOoVIQNYxbHppKk5t24a+jz6GqKuupQYe+lynfh66BafHu1cdp7wBdhqX8umkyu9TFYAs/75VpaQ834f+vX7DOkx5fjIDhJYthQbBUB7QoigsKMChd97F0V++RaueHdDijrthatWFWTNDFE+LkptYeTT3K22DrXukeBXo+RIg/wtfY+ytdQMQuEOYqDMXFwm06KxFocQMk4vsvcwAqdqzMuFM3YD0OXNx7vAhSOFB0GKiIIcFwy+pDVp17wp3cTGOL1+Pws07YJYVhHftiK533Qprxw7Q2N+e8pPkBkIWdRTIbBziuM0vu9A1TP6SO4IRg/DbUkazX375ZSUNwn/h3DivW/YUTgmmR8IsnUEwUgylk+6CtSPly2FVicyJ2QORT8l2ugGKlBSrdPkB/2UI72maiswVNEWctvji5g30Q3G6LtsWjS5wVYQLbpRkbKF6/rIaRTjdFmlWnn/ueQQHheCxxx6rxCAYg3+h6mlZohSDCZLKXR3Kqr/0r8DfznCppu9dCsZok5EgmwCbbmAkQJMACgwO2KFOsClETTPTIToCwEKfp3+GbNa4hbafV2GxhFM6gzBs6JC/cIqhfBqMxnvbjq2cZ79u3PUYPny4h6i1bH5WBcB4PfJzBbSsTAEQdm3BgEceRcTocSxsFekklVkq8gIxw8ZTmTAh/0x1MpBwc+ks/aw0mcW+C8zxMJCl+UW+G/R5sq5cEadzfj/qCcLWxcJjwLsixVjfVbMNBBDWpq3FC88TgzADrZPbCKkM0wIaa932rluL/H/9A6cVO7o9eD8iLxsE1Ua+owTWRSkoG4z5KEQ8r6D4P/BLdQIQRNtdMakMSobnp6IwnUMoV83NxIlVG3Dq5zU4vXMPgsICEN2+BSLaJaNR164wxcYAtgDAyhpwaLmnkZ+6CYdWrsXubdvRZkhfdLlmNMxt2kILi+SiNH7YmihPI5qMlwPNrQaCfRcBQtkK+I8BBAYbItsv9mlympNEG2LeBIU3AN0fzUMKLma3DBQUQ1XcUC0SEBnBuyUFLoVFsqLdsih5EkiCHOfYl4BP9x4nyD8pQGDlgNGylu0iDJMoVvSINtA6A2KUuPEpzXDQOw+PAAAgAElEQVToY7O+cr2BBeKisS197GKDoeoPvV8e955g33t98yH/h6paCZePnRcBghiPqgHCW2+9hevHTzh/gJBzEpumTkX2zm3oN/FRhF85Xm//LJ4fb5LMltEKEMJYmgpsk2UASkOPQ/ODym95BhEsFPfNRYKcXxNzpvQkXjqFBIAX88JbgPYOENI2rMOzz7+AaTNmoE1yC7Ym1+jGZQ3Ow/ux6O3X0WTPPnQccy2ixlwDJaYR64d4l+DyYWLMhP/Oxav6EagTgEDThKhJsrQUqJGChN4nXi6EcjYXO+fNw9HlGxDhtKFJ2zaIGzkAtpRWkILDgMAwFiOyKIyRhkB20rkCuPccwPbPF+HUzu1o3CgMoX0uQezg/ghIbg01wE8Iyok/oBlJvvfUPa+BHvpFgPCfBwjMWok4Jy7ub08VBDp5oCowOUX+XlCLCs7s/gPpS75HwalMNE1sirjx1yA2sQU0M+lcaA6JGcSnH87/095Y+gEibaCj0NLtUq8iEIeqqgNgQzIIzBwQkWISLa/Lzn5lbAcnQ9gKWnxTAgd86BQez+J3WMMoNi4GWnrmg8ycqLCOm1ExSBAjwq9kr5PSnUXQujVeFwGCLwChvAahFgxCznGkT52K3O070PvRiQi7Ziz34hTbvEhR0QFLxF2Fp4NCGy5tpAQU6A+lyyQ3P0s2ZyYgSHODnr3hIUAxn+K27l1TKvTT03Bs0+CT6s87QNi0fj2emfwS3pn5Ltq2TBRzlcB8sRv7v/4Mq957E91ad0OHB++ApVMKYPbX14DoiUJVHLSiLR7phYtAofII1AlAMMIhlYyIYGIWRi+F53By83pkrVmD40tXITw8Gq369UejAX1hbp8MKSiQuV5Ns3ArUjqxECMg8rVCjYuiErj37sGWOfNQsmcPil0S7K0S0Hrs1YgfOBByYAAHKP5Uoo2Y/mwYVHgRIPxnAQJXfnPrAt1ngFOpMuAqhOt0LuTCIhzZuAWugkJYFeriqMJikuAqKsSxnbvhPJGNQMUES+fWSO7fFxFdu8IvOhZSYDDT7xw8Ga+WaQiMBjmloqnS83TZyehPARAU0g8QQBDpAR4hQwghEYgWtQ5ELAsnPiGyFAhB/8N1XsYf4/sJlkHh/wNszLDooKMSUNB9Gao1PzLmz0WAUK8AIfswtkx9Cad37EGvSRMRfNVV3HdAUOzkbKvPA0Z35Kwo8nOyaoJJUeDIzoXF4YAWaoUtMpK7mVqpsye/jISxujE+tZw2kRhWsAmCtRIpKDHXyD7cl46m3gFCWup6PPf8y3j3vXfRulWCOBS6NeSmb8eWme8Bu7ei850PIXrsZXCHR8Km2nneMluiixkNBu0iMKhnBsFQwGoqoU7RXNzkKkT2ytVY9/4HOLf/AGJbtEW/m25AQLeOUBs3hskeUBZaGYXSIY20ClQZILMbGIU1eojUz96VsR9nd+1B5qq12L9zG8yxjdH/rnsRNeASqP7UxlRjTGxWGhYgkPHN8qXLKmkQ/mqTzlMwauxDs9+fVa7M8UJFpUzve5gjifwhnYL1vLfihDs3E+d27cTuX5fDkZmDvAO74XK5uEzRRL4ANj8k9e6Jtpf0g00244+f1+DE1g2Qg/3g174luowfh8huvQB7sNgczTIUFvaRL4ARxnX0oJOrZRvkn0eDUNbTgU50RBXrttQEDnThI6Ua3My4UR28Bi3vDIoOHQGKCxisE/tAL2byhE6LVjNsMZGwUymvXxDTtEJMqYMLnfmjU6UYCVGE6SkCq3pdXAQItQcIuni0Elmlk/4spdE9LE5mYPOL/8SZ3zPQa9LDCLniMtGYSBfUmskvgAgk3RacN1C3m8vSz/6+F5t+/BEmZzEi+/VHl6suhxIZARvsrFXgJmHUcVTX+LAgl/Gi0blUUE6kc6B5QQBByGdrurwDhA0b1uPZyS9g5vRZaNUqiUx24DpxDKnTZuLkslUY1LMbIu6/D5bkRMAWyPsCscvcHRXkOqqv1QoVN3+1uO3t+54Xg+AZ6EXAFqiMjDvZOdlxBpmrl2PHBx/DcqYQif27I6LvAIT36AEtNBSayWY0rINqUbikSoAMG0MCUVwmSna4MamiwGRWIbtKYDlyGAcXLsKmb35Ay36D0G3iY1BjY6DZCJlS329KnnpT0lZBpZyHcI6pOEXBimXLubadRIp1UeZYzinN2xOs5ud18R701r68T8WNvyJAqLrMsfZfrEw5LrrY8eZEz5vsYnMykbVtKw6vXofsHXtgdcgICQxFi67tYQkOgkqiLKIFbH4IbpuEoK4dAYsdhXsOwv3bKmSkb0Jm1iEEtUhA1+smIKhLb5jCIxmwEkDguWnWdS4MS4Q1a5nehc9KNX4pzxRDSHAoJk2aVCcixaqekUHvimZRRLLR6UmUPhLhQgwfN6UhjYDqgpaZjYxvvse+n36GrTAffpKCQrboJxMeopMtcFjMiOrYHp2uuQb25DaQQiKg2MhBknRDOkjgD6MeHHo1B4MRb42AKgMEo8yxOjbG19lzoaDU1zXgy/14v5fKGoSt27dwFQNpEMiR1KiKqk7EWg6oEzOgaSjctQ1L//EvmPNLMHDiQwgfMdiDZicPBOr6KQt9CaUWCotRcvAg0j/+BDnp6Qjz84dbUhDWdxi63zwOWkIsFIkEf/xwmRugSC16GFAKgtw4RXqOJbJ6pRB1MmWOuQI+qDwuPgCE1HV4esrzmDFjNlo3bwXJXYjs7xZjy5z5CLQEod+99wKD+kIiczMCsrQvmaiROl0qAwS++woAwZd4VzfP2vu7/BnupU4Agjj/S1BdKjeWyVy9Ars+nAstOwcpV49CzKgRQGIzqGZyaLPrgjAhWCG1tCizMrGxK8UkRnec49TrVPUTDPdzUB3I/fVnpL36JuJimqHr449CS+nKKlpy1BbJ5ooNZLyJYrw/rKpeUV8A4fzu5s/zW/UFEIzNwkSmRbzAyWfdgcL9O5D6+cfI27mTDvxo0ro9OgwajKDYeJgSmwNkf23hekAu7WNA62eBU8/B+mWeg3poP47/+jMy1qyGbLEhqm8/dJgwHtamzYRZl4W6M4oxFgItvceCrjkQdG3N86y+AELVc7MsF8w9HeiMpbrgTxVAsgLJLUNxFCNr3x+wF5xF4bYd2P311wgvKUKYjRg8GbLiD2t4JCzRjaDY7HA4HDhx7Dgs4eGI79kTsZ06QWubjPCEFpzjZXjEwi/+R1mfBr3XSvUz9CKDoMM4XcVRBswJIFAVww3X38gAoewq0yB4jiuLcT26G1JraPnEMaQv+gpR/iFocdlISM3iRPqJU00EdMm0ToaVtCJ5p/HH10twYvlKlGSdQpO2rdFu2HBIIZEwxyZCSoyFEiCqxkibQCwUP3cWJIjEsLvECYuZKQlIVL1GwNqlV+wSHWWg1monhHeAsGn9Ovzf1Ofx7oyZaNe8NU6nbUDqG68iuOAcOl51LcKvHgstphF/AnVppD3GqlfTEOPBXhENp2f/8wTnWt5JrQCCZ+2vp3EF799uGVKRA7nr1mL7F1/AeeI42o8cjKbXXgNTfBJkMubgenNCrCbOB9NEYZpLt6Mla1puVmpIYCnJxZQV5Y/paVqhSE5oxw5j88v/RO7vu9Du3tvRfPwEqJYwoUKHC2Zz+TLHCz2FVDem/00AwfvppZYzp6aXc8WAitmzZuOAh5NiXdyDCIDEFpqgOV04s30Hds2bh+ztm5HYvRNi+vRFdOeesMbEAUHkFmgWVsrkHMdBkWrDiZUSNX4uMzU4ckOSHVBPnMTBhV/h+IrVKCwqQGy/7mg7dgwCWrYAghuLIMgqbp048DBm+TMBBB5nISUTtrsS4FBdsGkybIXFKD58DIfSNsGVmYODW7Zwl0q/4mKEWiTYKKhLMqf5zikWtLl0KBpdPgJaSAiU7Dz88cNPOLZ+PWyaAmuAH1wdO2LghJtgbdUeWmAggyTKaYsRMrO26HwYhPqwWq6L+VeHq6SKt6qaQagJIFT8TuViNNsOm6CVOKCePQuz2Q4Eh7ClPVeK8VGe5ooLphInM3DU1Oj4qjWICvRHywF9EDVoIKwtWwP+oQIAs+DUSB+QqNyoiJG4ZDh/7wEc3LQZdocLcc2aIKpTa0hxjbm0UOQxTND4EFfT5R0gpKWm4bnJT2PmtLfQMjAc2z+Yi4zlS9GcSuIfeABo3hqqycrLldIbBIQs+r7CaRG9i3BDdP/788+7GqB7bayWqwMIXFpW6ETumrXYM2c+tPxsJIy6BE3GXAFLbAvAEiiU3wQyOQARvano5VGkiCUxDJ3SCrjFrML1uIRs6ZeI/qJ0GqFAasWpwXQ2F4dnvI/tXy5EwqihSLnvAZgiqaMXoVWjVMsDa9eiU5kAw3oFhpdp3BAAwdd7qXm/1jXstRyHiu/py72IzYmelwAIGQcOsAEOWS378vu+BGDa9OiUlLd7N7bMmIXCjZvR/ZKeiL95LGwtOgCmUA5E7gAx6eikw2yVpMIlqZzIsnJjMFGyJUsuUQPuBtQTp1Dy+zYcWvIF9mzZgtC2bdFqxFBEjrgawVQOSd+ODIbKjaUAvv+pFEPFE6Q4wBtGEKTYVikJA2tJAY6tWIP0RV/j7L79CLOY0aZ5Cz49mkMC0LRXN2YLWPupmZGfdxgRKZ1hb9sFij0IZpcb8tGjKEhbh7xNaSjMzkTG4UxEdu+JzrfdhtAO7SHbLDARmieRsokKkSUGEzVfNTMIdTFv6pKu5eG9gLVU/b1UDRCozPHGCTdVYhBKHb497sUYK/5bBwhUbk5xkzQjsskMq9GDgN6AHpXkhLJ7K5a+MxNF2/ehddu2SLh8OEJ69wAaRQM2Oy+VEpMVdgqvTBmo0MwqXHpbcorhmsON3Z98ivTPv0bg6UKEx0QgvE8HRA3uhai27RAUHg2YqFKoeg2CEAFXBghG1ZAx9ms2bMQrzz2D+dPeRMHmLUh/fy5aNm2CtreMR9DAAYB/OEgTJ3ow0fcnoCoOBXRIIOaDxqRij5GKa+lCnrOxl1zofKnNnlTX+0CVDIInEOAPVE1QTFQqRuVjZJRihoXAo4V6xjlgdSooSNuG9TOmw5yXj5ajrkD8qMthTWgCxSZyv57V09V/ifI53Cpzq1S2pjiR/dMK7Jz+L/hbJPR+7h8wdeoOzW6DYhGiKM/vULHVzPk+9IrjwrrcWmoQKr5HXd3L+bxPfd0Lcz7Ui+H9WeykWNEoqbrnXw6A6sbGJtUmxFZmOvGQ1oXSVBJMhUXY8dl8bJgxDQP6DEaze+9GQHJbyHY6KQjDJEpTlVXYlIG+ivNKkOGi/ttF+UmHE46t27H7o49R/McOmN1FaHHdTYi76jogtjFAegauEqAmTy5hVctlYVXPX+P7Ujhyk1HS888jODBIN0oiE+fKl2eO2ftzqhxwJQLW5CNmpZObwj4kJ9ctQ9avvyE/fTviu/VGYJ+BiOmaApe/DfAPREBIKMx2f8BKLo0uyE4XzDYrTFZ2HOENx0qbkdMNx+k85B4/DteCb5CxYQ0iO6egze13w79LJ7jtVE2kkp0Ep3W8lr0D8OakWNUYeR8XX+Bmw7kiersbYdhVPilupBgmTBAaBF/GsuJBjlJMNPe4ORF5VOgAjtKyfLrOOoCzHy5A+nc/wprSEp3uvgOhyV1h9guF2y6KFWzsLSLKe8vfg0h1cPxRNZQcOIbTqetRfOh35P2+FfLRTGhBYUgYNwZNRl0OU1xTKBZqlCQ0MMwQS8R2URpM3ydUBRJ1mSwshpt8S4ICYDOZeT65uTEVkLohDf988iFMu+8unPzuZxw/eBw977gDTa++GlJkI+6k6s2QScTM2le8/a/NO08gUxqrdNDpU4qBNngqXyELTwIIrEOl4GMm+OmAlnMa22fPx+5vlqDn8KFI/vttQJME7srI+VuVlNPeaKXKD6oqgEDsg+xyQDpwFFtffQn5hw+i4z0Po/HoqyAFBbAjGAMCj9Iq7ypqb0u36p83BINwfnf2n/0t4ZdSe4BQ8a5pwzVRORXbFQsmSdDmgHQ6H5vnzsLWT+fjlnsehu2G64CAUAayND85EHoAhJpGhFgFK7NTuieASpurA9rB/chbsQo7l/yAEhXo/chEhA3rD5fdCj+NNAm0Hkj2ZBZ+AL6KFGsJELw/zfIAgVaaW3LDTmNHZGpOFg5++w1+X7QYwU4Z0W1aov0N10NKSQFCAqFRu3VdUkbVDpzGkTRRvUBDwqdPDiMg4MGBnUCb7IJr7x849MkC7FufhqhefdDhlgkIat+Ou0Ga6MRqdjND6O06H4Dg7T3/235eXwCBVSE6UCtdF2yOZEVJVhYyvv8CWZ9+Bb9GEWh/47UIHzwY8Avn077byr1JYTPmQjUAwRhrya0ArhIg7xQKdu9CztrNyN+6H8fPnkW7m65GwmXDYYtPhGI2c2URgU6i/AV3olcjaSqUvNNI/e4HnD2Tg87DLkFMm/YwWUjnQkBExqbUjXjlgTswMiIckUUudBo6HMnjxsPcphUU/wBmm8sr0crPBgEOqtZx/LfNm/q8X98AAqs9BU3IckI2ydCgag5IOTnYveQb/PHFV4gJDEf3e26BbWB/yP7BwmiZTlYcrGsCCFWjuCoZBM4eqbDk5CNn4QJsWvglQvoPRs8H7octPgay3gegdMLyx9YeJfoy6BcBQvXAqS4AAr+73jCIegjwSUXh9jKQcnOR/t672PX9N7jmwYcRMmE8NEsANKrDJoDAdCIZMHvfnNj5jctshcSfmzSZqCZHhpR3Flve+xCZ332LuOHD0OrOG2BJTIBVE02W3BIZyFKZoGE1W/3MKRUp1jNAEDOeNngJSl4u/lj8JfZ/tRgRJjNaDxiERpcOgdS+DRDoD5WV3XRyo7XKJpJi2NkoyXDGE2ZJPN9VBVZTWekit9fdvRNbZ32I/Vu2IrZrJ3S/+VYEduzBqRi3xcVNn7xdFwECMRl1wyAwlPNIkwq1Pgm8hWW4aibm1w2LJqFw+y4snzIZ0YVudLrtRgSOGAqERXEZJGnG2AqDZN/EGPP+7emWWz6m03+5OEmsQSJ/ZkUGzpyGc/1mrJvzMfKK8tBxzJVofc1V3JBPNtshpOUCIIhyWuFVUHLsJFbNmo2Da1eiY6/OGHDnXUBCG7aIJh3arnVpmHH/nejj0pCQ1Ap9Jj0K/25dgeBAboNuAfUeqSY+laZkLgKE6talsfdKmkYFKWVXtVS1Tp+y6lWzCDGg6oJj606snzkT+ft+x8hb7kQgVSw0imFxGLUR5Tp1xSK0LVVeZZt3pdSG/vpy90T5VA2wudxwr16NX156DZGduqDnxPthYnUuBXjRmEaUe9cNjWQEzXJj5UOZY13QUVWNy38qpeDLvfjCIPgyLhQw9W1K77OhVw64XShK34pVb7wBx8mTGPbk4wi+fARgtrFoiihVPglzwVX5fHFV9y9x1YxeM07ZSc3MnfDMXA6lImf/Qex9/WWcOJGLSx++F5GX9IPkF8YbppuEtVTbTQIsIXYovSo+o4YECNyAR9OQ8dMP2PTOdMQH+6PThKsQMmAoEBEtxkrsJKWtb0UbCmE+xac64+Sv20kb1Rs0qobmgkCI5CyAdvgPbJ8zH7uXLkebUdeg6yNPAJGhoD4Zwlmv5ssbQPBl3nn7DGPj9CneeXkzX+avt/up/J3KNAjG7/qSYvB6L/ozFXSQGWR/TRDB4nIg9/ufkf7WdIQ0iUPvp5+C1LYDXFQWqGMVviO90Z4wDzMAQvk0LsdHvfMpdzrVJT5kp2V2FqJ4xWp899q/uXKiz603ovm1VwKBQicg642WRPWahkLICFQkFG1Kx+bpb8N97Ch63XY7QsaMhxIcDE1y4/jmNHx2591IgYQu465H3M23AvFxpfoCTaOUROVNp/ya9A4Q/grzrqa9xCcGwWhwIJp+kfWsBM0sQzp7Gn98shC/f/kVmrZujq533wVza6ov92fbdsUs3NasfIKoKkh4f0AVFxkJTmSVKF0FJWvX48dnX0RsYgL6Pv4QzO1bCc84i63UL/98AYK3xc0LQgcInkZJnj4IZcY+vrxb9Z4D1QEnEurRz4zTAjUCKiws5IZApAIPDAzkv+kyXuvbnVzYqyoChPP1QeB0gn6CEW7/9EWo+VcJzqxegzWvv4GYyCh0/78noXVow+Inym3SCYJqtBVVxtmzZ3k86A/pRcjLgCogaGyCKdgYbnIMJEk4S5SqMPgRYiwNDs2FI599iLRZn6HLpUPR8d57oNEmS7oFM4mdJJFyo+RoDRcDCrebPTNCg0Pw6KOPwk45/yqu2jVrqhwIiUmzup04uHAhNrw/GykD+6HDxPshk1BMssAiWVBSVILikhIGCSEhQTxXuKqd+1gYBroi8hurV8846779lELWKxbcJTjz609YOvVlNO3YDb1eeBlKXAzMZspPe2fwqN3zk08+iUsvvbRBmzVxOkVfR8Y6oTVE5lrGGrJYLDx36LUVu7Ne2Eqp+Ntlz9FY874ABK/3oAlIR+vD6JkgaW64D+3H1tmzcW5tGhpdPRIpf7sdUqN4ts0XKSUVFrZbJv0CNeCzQFVUuJwOWK2W0thS7vO5qsHMWgFmBXgmOWEpyMfheYuwccEiRLVujp733YXAlE6QbCFQyOKb9gmFWpmT8FGFnbqP5ubhxNcLsf/zz2COiEabhx5BeLdeMAfYkJW2DL898BiaxzRCryeehLXXJVD8bNy9VAgyyTbP0EdUN0Le0t5eR/Z//gU+AQQhwKJBp4oDvVUsXHD+vhOr3pwOx+Gj6HHDeMReNxYIjmRVCwkYOf/JuUwqM6sIEmoPDvQdAhoJ1TQZJdu3Y/lLr8Gdm4shEx9A+PChQEBgKa1cRrN5D1Dn86SrslomgMCbjiHy8GozW/6TPanBGjcbPZVifNa5c+ewceNG/kP16qGhoRg0aBA6d+7Mm2J1ION8vre336lLgFDWiVa4YtB+ZHY6ULh6Jdb++9+IjIlDj8lToLZozmYvtFnLkpnnXE5eJhZ8+jn27t3LAIHGyul0wt/fH3fffTe6devGX4VeT06CrPzn0lvqgmg4DxLIVXHg2y+Q/voMdB1wCdpMfBhyVGMh1hJ2HhyUyhpCVD1CBoMw+fnJCAkOrjeAQLdVIikIdJbgyOefYc2sOeg48jJ0mvQk3FY/wOTCseNHsfS3Vex0GRYajE4pKejTpw8iIsP0BtBlxWy8VxgggWOqcKXj6iU4IZG3iaohe80KrHz6abRIbo1uU1+G3KQJjw+BeW/XfwogeN4Xgbc9e/Zg1apVyMnJ4RblNEe6du2KoKAgBhJslnUBFQw1j0P1ZY61ESlW/AxOoLGOR9jQWUiN63Tg6I9fYd0Hs9AiKAxJTz+CqHbdAGsw/7pRbUbfmQAjde10KSqPz+87d4L6QhiVSRUBgmjmJFqeSxLBAwU21Qn598PY/d4MZGzbhEZDh2DAY5OAoEjR34EIOFWD2yT68ppl8utQoR7cg8Pz52LP6g1o/7ebkXj99VAsZpz4ah62TZ+LyG4d0OfZZ2GKS+L3IYAgnBspeSGMoi5e5z8CPgIE8timDyHfbj1aOEtQvHoVVk97F2EREej92ONAu9ZQmLoU9puU4xLaROqv4AkQzhcciM+WOMUhw5SXh01vvo0/fvkFw++/F42vHQc1OKS06/R/I0CozaP0ZA7WrF2LxYsXo2vXLmgS3wQ7d+1iZfg999yNli1a8inAO9Fbm0+v/rV1BhA0syid5tMsTTwLCfNhcTpQsnIFVv3rNYTGN0GfKa8ACU2hSS7uRy8TA+B2odhVgvT0LcjOymaAQMFu8+bNzLI88sgjaNeuHX8J7kfgYZ6idyjSj80UcBRkLPkeaW++ji4EEB59FK5GjTlnykU9DF1IlV1zMCJ6VlYUTCYNQlCw7qRYXwyCDKvbgUMLFyD1/Q/RYdjlSHno/6AF+uHUuUzMnjcLRzOO4Zorr4bb5cT6devQs0cPjL5iFPz8/ESRsUcDJrHuDGcZ0neIcjQacwLsBKiy1q/G0iceR/vWbdBl6lS4miRw3LD/FwAE2kiOHDmCTz75BDa7DSkpKTh18hR27tyJ8deNR88ePdlTgJtY6X/XzWrxfJf6AQhUqcBaMFpFEm3EZIzhwoFPPsC6+XMwYMgwxEx8EAEhkSxMZOCn+weI7BJpf1Ts2v075syZg5KiYhArmJCQUPngUdqkSy+t1gECAXCzSwN++wW/vv5vKAlJuOyN14AIMjMycwURgXpqEU5N+yzEINB9Fufj2MLPsH3e54hPSUGnB+5AiZ8N6556EurJfLS762bEjhkDc3CE7mwq+opSOSeZ9V8ECBc2S30ECGQ3KwACC0mIMszJxOa3puPYqmVoMaAfUh58FGjShOvMBVFJMdcqAIWJxGIGQLgQcEBQQ+VGIVwaU3gW6bNm4o8vvsBld96L8HHXQw4NYZqZzzmlQp3/HgbB18fpKeAkGn3hF4t4Mdx4440gm9pTp07hzTffxIABA3DNNdeIVEQDgem6AwjiZEHVM6I7oNC1mN1OOFYsw4p//xPBTZui77P/grlJHGB1cHrALZlhJ9aKNm/dUpXGlU7LZIfdpUsXDBkyhG2OeRy5yYzu6MknZbOwseeyaRVQ3MhY/CPWTvsnug28BB0eegxyFFH1RrWMoDXL6rerYRCqAAg2m1+5F5c9V8NsyJcZIahpT/aJ26DLLhz8/DNsmPk+Oo4ciY6P/B9c1kBs37cdc+e+jwljr0O/3n1gMpuxbNkyLF+5Arff/nckNU/Sx1v3RDTKN7nMlA2m9e+qN46mTcTtRv7mVPz02BNISE5Gv5deghqTKBqs/okBgpEGpBQCzY/09HRcMmggmjZpiqzsLAYMYWFhGDduHIM646ofsF1fAIFYXKHLIQqfD3olLmR8Ogep8+agx4jRaDHpSVj8SZhI1Q30jKm/jRAgUInj6nUb8PWShTh+/DjiYkEsqugAACAASURBVGLx4IMPIikpqTJA0BlTIXAVZa60Bk2kdVEUKGuW4dfJUxHYNBmDX38ZWjQxcRYBOIl5pV48XHRM24wCk+qEa3M6Vr30JtT8fAx98O84cDQDJxZ/C2dAOAa/MhX+PbuxSy/7hXJvEDNcJhPI7/EiQPAlflT/mkoAoUoqWpN5snCBI5Uswo2j69Zh/Sv/RoJJRo9bb4T1ijHsc+80qbBTmRid9kx2BhRcesaiMZ19uIB7FkiT/BZVaEVnsPb9d3H0q8UYdevdCBk7AXJEmKjVrgYgCNlk3Vx1lWKomFaoOKmrFNZ5qJRLSkqwP+MA06CJidT6VMLhI4cxY8YMDBw4EKMuHyW+cAPRbXUHEGjukK6AEvyspYZLAufWS5b/hlVvvIrAZgno9/RrMMfHATYnVyDIsMEqu6GRoZGeXz59+jQWLVrELMJ1112HkJAQUG6Z54kukuIARWGGqhj0LZBhreJExtc/Y9V7/0BPAsP3Ps4GMtzMiNeF6AHCraJruOjdFUXFc88/V+qDUFcAwXOO0PxxQYbdpeDgws+wbtZ0tL9sGLo++hTcllCkpW3C119/jgfvvxeJCYmcLtj5+068/e503Hnvfeia0llXrhunQNHJkdOMpX1WxXrm2hLZCauzGBvmzcbvn3yKy8aNR9zNtwFhcWLaUTm0lys7OxtPPPEEaxDGjx/PILchLyNVR5uYxWYFzRdiD3777TdeQ4MHD+b5Qt+arYxrmTr07bvUD0Cg1ucWhYSDGjSLzKXqFpeC/R/NQuqcueg5+hq0nfgs4E/pACcsZHivWuDWJRHkc/P90mWwmFzMxG3bshW33347950pN++4qke0YqJ1Q3+z7pAwuNvF+o3i1b9i6QuvIDy+JQa88TLU6CiYNNJJEUCg/CG76XEXUrL3MqsO4Ggmfn58CqTDRxDTrBGOnzyC0Pxi7LcHYcLcufDr3J4/hDu5clA2w2k2w34RIPg27ap4lbEnlQMI1eWpKdjYyJVKlbmuWcnNw+7p72HPj9+j88ir0PLm22FOSigV8PiaR6/N3ZeerAwTWTrJFBZj07vTcPDrxbj0rlsQee04ICS6gudCBfZANCWvRjRZmzvS56KqYtlvS0u7OQqRomgmJK6a2Qsq8aHga1XJa4JKzqh7nrCrZXdS1Q1VM7FYyMSlovRHeEsIu3sVLr3FKi9IVcPZwnP46acfsW3bNtxxxx1ITmoh6LcKTax4c/RBQFa7URHjUlOZo6/zQ9IUuKgtLdc0k3mKnvt2FKNo9Wr89upriEhogksmPwetWQKLE216KRdZKNvIY56IRkXhk+GSJUswatQo9OzZnQVWQolPVTZU+iXSGBKVOVJoY+qLPtMCWZOQ8f1X2PSv19Bz8GC0uv9+KI1j+DRNqmwqpzRTsaBe+lhxvIzvW5pimDyZwRyJFP3Ipe6CL8q96pu5PvHcmgqb04ETn32JVR9MR5eRw9B20v+hwO6P/Xv2YP6cDzB27Fj06NGD58ZPP/2EBQsWsHlT9+49xftpBJNojCibK8rPOJWiM4QKO1LS57rh2rMNa178B04cO4ErJ09G2MChgJ1CNJWderskZGZns0hx2NAh9SxSLC/o9Ix5Rg+DY8eO4PPPPsPGTZvQoV173HzLzWjWrJmo22fBiaiuqfoS690bW8fi20onlfoBCOKz6FBlHOrJw6IYf3w2D2mz5qPf8NFIeOIpWOwWrnAgSaNoD07MnRgvh9PNz5LWEYmyKa7ExcVVo20iIzE6yYkqH0l1w2Kyggrm3CtX4JepzyMosTkG/+NfQERjbrRH5ckmzQlIgfx5nCggnZUqQys8jdMrV2PHa28gvCAPjjANjl6j8Nn6tXjmg/lo1qa94X3O65bmJV2+MFfeZuZf/ec+AQTKCamSFWa42EAme+V6bHztDfj5S+h7z73w73MJpLCwelXKGwuZ871Ge9+iQqTNmI6DS77BsLtvQdTV1wJBjbhEq+z6cwMELh1j62kj9HKtGQdks+KGciwXh04cRWLHdpBCgpnJ4bp7tgoVDUeYS6dTtsmEgsJCfPvd99i2YxtGDh+JSy4ZVCpS9LQrLQtidZ9+qTuAQO2IKbAR6U9aAPryZkiOYpSsWoXf/vkqwhObYMCUyVCbJkFm9zRKpYj+A1a26TYjP/8MPv/8cxQUFOCOO/6OiIjw0oY2QoRFXga0CYqKD8MYSNE02Mi5TZZw9Iv52PreLHTqPxCJDzwAJZZyp7QxE0ig7YKcRquu5W0IgMDP04NVUjQVFrcDRz77EqsJIAwbig5PPAe3NQD5Z09j3rw52LtnN/r27YuQoGA+LZOYkzZpAgis7Dfpxe8emyGnXLgLpNjM2CdKcmDfvFnY9/58NO6cgs6PPQJTUitoVrtgV7yWOf7nAIIRJ4z4Qifks0XncPToUU45bNiwAa1bt+LUXYAfGfAIAbLxes9Q4wkZzo+lbBiAwHoSVzEOLJiH9bPno89lo5Hw+JOw2skGWdDyBttL4FwccyhF4Mb69eu5e+2dd95ZLUAgkS/302F9jmDXWLehAM6VS/HL1MnwT2yOYa/+C4iKFVUzJE6kjk5kQGZSyYGE/RFIR2CWS4DMHKS//AZyN25EQGwgTMNGYOZXS/Di7PlIbNVagC29/TsjE8o0GJVPf/Vd/gK+v08AgWKCk6leB0z5udjx5iwc/+FXtL9qCBJvuQlo1gISIUR94dRHSZ2xIBndGqfn4gKkzZiG/d98j+F33YZoAgjBkTUzCBcwWBV/tboUQ20YBA7spW8sWAFaGLJJ48Y6m6d/gvT0DRhz9x1o3Ksn1EBqQCSWLGfrqMSOTr2aE0TTLvn+Wxw5fgJDBw1Fn569heDMYhbtVz2OLOKfdQ8OeIOtKwYB5FRIJa0EEWSm/rn9t6MIjlVr8Os/X0FYUjwGTJkKxLUUpzousxFQiH6PwO3Bgwfx8ccf82l52LDhsFipHKps1GXJCYtG9i6UXqANjU4vYuO3KC7k7dqOPa+/jfyjx9H92nGI+9sNcIQHMRixqIJ25k+sYLXsufkwhW1oEOqBQagMEGSYFQcOLfgKaz+Yjq4jLkWHiU9B8wuBrMo4dvIYVixfxlbYSYnNER0djeXLlzN13KlTF738k6Mun+REhw1x0TgJhoFyDBqUvGPY/fYbOPLbanT+2wQ0ue1GuIPDuUU0NWbzvlk2JECosIp5Gojnp8gUXUiEKJ5pUXERfvnlF65qeOaZZ3iM6CIWXGhiSgdEX8Vl7b9pw6vuMmZe5XGpP4BAMYKWh+hkCEguJw59PBdr58xB99GjkDTpKU7rCDtzw31ET0ty2aMZquJCampqKYNglHR7fk9OOxGopucuzjr8eVw2KwHyit/w04tTYEtIwog3XocWGsHjLUhdNySVuv2qXEVh4EpuHO5yAPuOYtPiJWgU3win46Pw0hvT8NrM2Uhs0YLLKYWjB92zRQAEr11E63Az+B99K98Agmbi3K9ZKYF28CC2vvIWjm7fhqFPP4SwYZdCC4kqa+3qga7rcsxKAQLX5NIOqQBFZ7B5+nvY++2PGH7n3xE9Zgy00MgqVAb1txESGLqQFIMBEDgUU06BDMhUBW4zAYQSrPnnTBxZ+ivaX9IXKddfC2ubZKhWCyQrLQlayxKTB1lZx/DN99/hRFYmRo8ajY7tO8KfTnCE3DkwiG2MP68ewUFdAgTR28BMjslsm0ysAJ0pLI4ilKxah19efZkBwsDJLwLxLfQUBEU/AhPUl94Mi6Zg1cqVHOj/dsstaN2mNY8z55L1nh2UJ2VlN9WLc2mCBIkmfN5plGTsxvJ576N45xF0GD0CSVddCVu7dnCS+I7gimZmgMagpJpNoaEYBE+QoJJIUXHg8ILFWDP7XXQaPgSdHnsGql8Izpw9g42b05DQrCkak0gMQFpaGrZs2YKbbroJTZsm6EBA8OAMEHShIZ0OabNgEtelwZ1zBLu/XIjfv16CRrHN0Oe+uxDUsxs08negNKBs8eoPQROUUgykQRh+6dB6TjGUj0qCwaO5oGHfgf0swuvVpSengIqLi7F06W9YsXIlnvq//0NsbGwpmNDJet0vwHjPMoBA5XZVpRlqZhmqBgjUrOmGG27wuRdDxbhLG62JezDQRs+LCSaHG0c/moNVcz9A9ysIIPwfMwjiwfOOLg4u7GzInANUWca69euwcvkK3HbbbWjatGmlFAN9Z9EoVaRhjLJ41ULuii4Uf/ctVr3xOtC8BS5/6w0gIlxYNJKCwETujtR7RTfq4sAlrJgJuJudCnC2EKrZhA2/b8VLL7+Gt6a/h+TkFswWCO8O+q4UR0Xa4uJ1YSNQI0AwhDsanZKo/EQuRs53P2Lr9FmwNw5D94fuRkj3PtAsZUrsirnQmm7P11y053sINzcKUgos+TnY+va7yPh5JQb8/TY0Hnct5NBwRpOlS5ZpV+8T5XzuxTBKIsqNzG9IIV9bDULZdxMLmNsGMwqXYXW6cXbLHmx/43UcPn4Yva67Gq3HXgVERkHzDxGuaKqKwpJifPf11/jp558wavRotG7dmvOlZGYSFxfPgjwOEnQyqiU4qM3zNL6LNwbB1ynLaUxiD1jppLC4iuu4SxwoWLcey177F6JiwzHghSnQmrWCSgZaLBykqhkJbskKuJ348osvkHHoIG674++IaRzL8c/EBjDUUIhEZ6IBDDEA5DBHbIVy9Ch2f/o5ctatR0lWDuKvuAodrx8PU4skps5JqCvKAIVCQjg3Vm8ZXpFBIKOmSZMmwd/ud8FK66osemnOS7ILRz/6HKs/fBedLh+OjhOfRIk1CGdO52LO3A8QHh7GXhmF5wp47nbv3h2XXXYZgoKoVJi6ARqBWtDEfNI2UakpaWZUuLLzcGjhTGxd/APskTEYdM99CO/dCwgirwV6uQ2Qqb2vt/VXmUEwRIoXqkL3uq65+ygp7VVs376dU1Hdu3ZDhw4dQN4Mq9esRnhoGO666y72z+ANkzdPvTMgtx4Xeyr7durMFKUA6TJ0DcbfnkLhhmIQxKFAQBP2NyDg5nDj4Pw52PDJfHQeOYQBgt3fT2ysuo+LIcQUxlkSZLeLfVZ+++VXBghU5sht1z27SdKc4UoE3XNBd1SkTqqWokKse+55nFu/Ds1GXI72jzwMNSxQdE3QzHCb3GxZTqlCPhrQYZDWPj0fUYksDgGqhjVpG/HS1Kl4751paNG6JTSJ5LL6xeX1xGDU/mB4PvGuqnjmdd75EAT/DPfiFSCIWUVqcFKIOpHxwXzs+eRTtL1yKJL/djMQm6Crt8seRl0MTnXjxzkt2hgpkGfsxY9PvYDCw6cw8P57EXPNaMjBwbB6iPHK7qX2k8XbM6wLgMBBgg9qQj3PLdfJCYzCjSbD7NaQu+hT/PThXMSFRaB5lxSE9OiKqH59geBgXiynDh/E2/98A+vXrEHTuKZwUPc+uw1SkD/uuu8+DBo4EH68EXmXi1X8zufzLOsKIAhxlfD9p9M5C+Vg5TLHzDVrseJf/0aopmDwww8h4NLB3IuBQAWpmekwr2pWlLiK8PU3S1BQWIDrrr+eS9W4OSTbMeu5VonEoVT7QCdeBTh5DDs+nIlDP/2MYFsI2g0cgsjbJ8DapCU0Ym+YNyVdjjFa4sRyPgChrkWK4gCo58iLC3B0wZdYO28GugwdgrZPPge3TTSZ2rolHV98+QVOnjiJ8LAw3hDHjBmDRo0MbYVoBcxN1lgES+9M40TTVYHF6UROajp2vvQ4VHMw+j4yEQH9BkELCmR3SSEzo7hhhsUr1Vs1QLhQcOBt/YoDsujySX9Io0IU+tLly5CZlYnAoCA2GrtsxEg0adKEQTdfur8Lj7O+QRquvsKtU0cMRuleBX1I9fdVPykGoVMSIlN6nibVArgU7PtkLjZ9NA+9hw1B4qQnYLbbATKC4oqCCmZvVB0ky0jdkIq1q9fg1ltvZQ1CpYorXQtATBMxeDQViJ2hf5jzcvHTfQ/ClpWFgY9OguXSS6H5kYkbia6psRe1DKNeP8ZKEt4idM/k5UDzj4G8omFt2ma88sILmD7tbSQxQBCjykJMNkrSs42+TAKP15xPvKvlR/j88j/DvVQCCJ4CHCPYCA9vBVKJA4c/mIddn3+KVmMvQ6tb74QSGgWJnPp8yDT6PDI1vZDzWibAXYKSNauwZMrLaJaQhD4PPQBzlxSoVrvRhUFMmHr0QqgLgGB8Vc55M1InupvWs3ChlFQZ0skj2LPoW+Sv24ySzCwgOhzNhvVHQEKMSCGUOJB58ARK8gtgNdtRYjYjILk5/FskICopCY2iogXt5kPforp4RnUFEIwlTwCB/eMpyClWtu9VM08hY/Fi7PjiK4Q0icfQxx6EuV1naFabYF+IBKd5YtaQnZsLl9uFRo2iYTKbmDXgPCtrDejoVwLN7cbpoyfg+iMDealpOLYxFfHNmqLt6FGwdukCrXk8JCWIPRFyj/wBp8OJWBJHBZCLoPBOqK5jaVUpBoNBqC+AwGyUoxiHFi3G2tnvoFPHrkiZ9DRU9ouQ4HQ5kZOby7oVYjEo2BPTRE6BbIBE46MK8Rgb7fAp1ASZDG80N1y7d2PTvE9QnLoacYOGosPEiUBYNBQrCURV7qQnah4oH117BsGwCK+L+ej5HpWqB3QwxedURUFJcQmy83OQl5uHwKBAxMbEcrqBxsNitgiNAscUvVqf2xwL2p7YKjIUkqh8lvwtdH2D4OvL2o2XbmYNVMXAGgA2PmKVDUyKlTfZ3Z9/hPTZs9Crazc0efIpBERFcKtvKhUWVQSC0WQ9qt5ngUzG8nJyOd1C+qbKFwFl0XmVKohYB8Tv5YR7y04smzwFkuLG0GefhaVXH+5fQjUTkkJMkwACVJIpaD4BUOm+jc2foYOqYf36dLzywhRMn/YOmrdppf9csAsUO6l6wupDF9G6nl//a+/nE0Cgky0tddeB49jy73dwZkcq2t0yDgnX/Q2gnD9xkbS5XUCdva9oiahTmuDq2dPY+8EH2PnVV2gzaCA63XsnNPIA0MQEN9wOzgcg+Hwv1TZr8r3MkSe+fjqjHuZcRcU0HaV4ZVhUBWaXCzhzDu59B5CdtgmHN6biXP4pWOy0YYoKCK4DdtHJ2B/FgYFIGj0cra4eBUQ35uZDZuo2eIE5udqMS01ljrVbRIK6Z4qSZdFU8AiY5GJo+w8g7e33kLl1O1LGXIkml18JO7lGBpEbHJ2UaNaKZCp3s9PpYQK7TJ8qKtwlDjj378Xhzek4lroBlpMnYSp2IaRlMjreOAF+XToCQf5w2yRY5QC4s7Px64fvwZHvxIjbbkVAq2aQiK1hSrNqOZ6vAMHX8a0qKJcHwyJnbFJcOLchFWnvvwOcOofOd09E1LBBUIOpGY8wLlNpflUqf9WNlwg7cYCmsyCV3+on6IKz2P3RfBz4cgkSundFuxtvgKVjB27tLkSeJpgUMwd8ysV7Z65qFime/7iUHynWGnjocEpz7KSypyOOQu3rOdvOtsTi5E27q9CliA5GhCdLUJCbK9g+8k3QANe5AuzfuQtFZ8+gSVw8Gg8ZiMDwcEi0pnXRrpHPLwO+FedLPTEIdCJngEDPUYOJbIxVDac3rMSmd6bBVuBA08nPoWXnzoDNAsVCp39qyscNmEW5I5/LdA8IGq0KPhD8jLjgVYKNRFE8IYkZ0JupFOdjx/QPkPHVEiT2SEGXRx6GltgaGpnomSwwk+kCAX9uJEUsgo5qxEModfEkPQIVXG5cvwEvv/Aipk1/B81btea5LPQOgq1wSgpsPnQRrfEs6gHqahezyl79Z0gTeN57bddSlQChYrDh4KwAZ9J3Yc3zUxHrp6H7Y/dD6tYHil8AT56qPrg8oV2zlpl/n6X24nVCR1vxHYj2csKs+MFx/DhWPPcMzCdOoOfttyN09CgoIUGw8GZQ1l62dFOohWLf10GsnkHw9CTyQcOt5xm4dIz+LQzr2DXSRgcUHU1LLhek7GxoBBQ2pOLsyWOiqSl1zlQ10UhFMUEJC0PTgX0R1b83tFDqfmbTMVz191K9srr8ZPcFBNYVgyBgnpBCE5vCZltkv0wxR3XDVFiI4jUbsOOTBcjOzURAy5boNPpqhPXoBI1STfZAvb6aAJvIGXOvhaICKNk5yMs4hOwTJ5C3agWO7dmDaLsfs1G22GaIvXQYAnp3g+Jvg0WW4baqMJ114OAPP2LTgk/RJKkd+t73AMxJTZgmFSfKyikczwDhWcVQFYPg67yrHKwqfy6PlyJBzcnCgUXzcXDxDwhOTkGH2/6G4C4pkP3EadhiMotxNaoSPN6catkpXSDzydMEK6UciotxcvkybPv4I8RZTEh6aCJCu3QSKS3DmoPGmpRqukKt+pbbZbxwZqZo1jSsCpHi+Y9LVYHaMAwTgFFU90hQzpxBfsYBuM+egZWchYQ+TzAGekRicKDIOH30KA7t3AnNLUNyU2wkAZ6Kk6dOoUSW0aJtW7Sb9ABimieyS6UAF+JemMEw4lulA5UACJ6bb100a6I2z6Q9kEm3xXpfHRweP4gt06Yhb91mRN19O7peeQWk0BDIEvkhiLukjZoluNzLgWY4bdZlkbk0ougAgctrRWsoNtEysw23hjPbNuGXKc8joNiNvrfdgsgrR0EJDmNvF1qb5EXCYkQSI5Mhn0d1l9Ae8BPh05RLUrBxfSqmvjAV0999l3t/0MXTjR1U9QPFBTIIdTvvvO8D9Q1WKu7rvoAen6yWufzEbcKZLelY9+xkRIQFoPeLL0Bq2R4a0W7GpKfNzEB8RuGP8AHySTBi1LKK9xBCE6Y7+T/FzilRcxjZH45DB7F2yjMwZeZg4Asvw9ytO9ObJrMbmmZpkOZENQOEC5sQng+PvWgIzVPenCKa0w0UFAIlRXodEdFuuosf1WBZLUBQIGC36pQhW/6IBdQAV10BhIq3WmnBUqvhgkKc25iGnHWrsPXXXxEaFYWYzikIatcBTfr0gWZzM30JxSoCnOZE/s7tOL5sJU5u2QFHYREC/E2ITW6JJr16I6p7f6jRTWCOjgDskt722c49B4q3piPt32/BcTITfW6/HRGXXwWEhwl9BDeKKgOmxr3XBiCc76OpKpDRZmBWhSJcObATB2bNxLHUNDQfMQotb7sDapMYrpRhZkDvXsniO2OOkACTGBiJSm6pIkKDpbAIeevWYe3MGbAXFqPbmNEIuOFmBNIYCOWnvgOWnYTFrljdxCt7XVbWqQbp5sjfmNKlOkvAm5EsY//y5Vg75wNoJ48jRNYtpjk1QuV5oiMlC/Lov11uBPv5we7nD5U2SwLosCA8MRHR7doiOCkB1v79ERgWVipa9GWzqUpsWlcAgTZfou/Z9opiBT3oc/k48tVX2PXBfEiJ8Rj+xKOwtOsExWxnwaVioq4mCqy05WuCHWLtaYXunsyQCOjA88mtuGBhDwQqwZaAk7nYN38u0pd8ipaXDEX3ex6BqXk83FbKMAiBL13EHpSG+ioWgzGGJPhMTdvA5nQz3p2J5ORkj1f71j30fNfaX+33fAMIdDZSnDi3KRWpz02BX2Q4+r70IqyJ7XTajVIMFXOwtRcFushgQ2/JI0AFZbNEqx42BqKSF6qoIAX1sQysfOwxaIXFGPriy7CkdIVMJznJTYVwDfIcGwogcH5bty2lL6azllzOJ7TTYoQoEBsUKpcykeqfvQA0XW3sLRdcN8PWUABBsEwmELOCvDwcWbQQf3z3DUxF52AK8mfbbaLP+dzDjociHy7nnYapwImoxk0QGhcLc/duiEvpCCTGAyHBeitjamlOlRA84lBOHMfhuR/h2MqVCGnfFr0eeBBSIlU0UGkYtQIWJac1XfRsSMRGFS91qUGoavPhGnBKK6kmmB0FKF65HOkz3ue9usPfbkDEyOFASLiwTjZRRYcoZyt3cfdWGaqzBI6jR1ib8fuSL7j8M+WKqxF35dXQWiSX0eiGP4Lh2Ke/WfWsU8MDhBKJmvgQLBDyejqrmtwazu3chd2//Aw5KxMRzmK9nFGPYaQHotQDG2JpcJr9kNS5K8KaxQF+Njg1lZsD2Rs1hoUtv0mDQKZKuthPH2Nv7Fu9AQT92fIGryv8hSlBCdy7dmLTuzNRvG8vkq8bh4SbbmZvAuF/SdVAKqeWqNKA0wE6o2IASZHONR40AXCqRtBgIe2UAihZJ3B44WLsX/wtguIbI+WWWxDS/xIg2A63WYemOn5kp05RYVl6eQLsiwChbuKzL+9ijLtPAEEjm07VgcJNaxgg+EdEot9Lr8CU1E7k+1m0Kyi7cicQmk56qYlh2VnTzdHi9SNaiyom2PtdiJwYherThkrSTCVFOPbNYuye+wmkoBAMfnkKrG3bQWE0X+Zy5gtq92WwqntNgwEErtrQDRP1Ux7nP/n/Cbcyiu4ECDxJUc/7FqVZ/1sAgVIwbkmBncRQsgotKwsn16+DNScTzuPHcXD7DtZlaHpemcdL0uAXFoGYlI6I7t0blqQkyOERsPoFQbVbIZuFwI6gBzWfo1Ir7exZrJs2DZk//4q27dug5Q0TENizL2T/AKZFydGSxVhe/PkbEiDwCZnXI4k1AeTloOCbr7DxkwXwj49Bt3vvhr1TF7ZD5jo90hDx/OGZJpabowQlWadwMG09stdtgLx9FwKLCvlknHjHrQgbfgW08OjS7oa01ivmpgWB8CdjEGgd6H4AXK5IFJ3bDe1cPjSHQ1iZG5fOZgoWRK9pJL0PlQT60RGY4p+YMbwYJZ1R5RNOWdljzeMgPqy+AAJrTZjlFQCBSxn5e8mQ8k/j2A8/4uDM6bAntUHHO+9GQM9eUG12btNNqSo3O5SSUZ5HpZqBCUSCWdw/qxGNNKkC5dQJ7Fm0AIe//QHRsU3Q8e+3wZ/KYAMDhZ5Bh2giiUg1L0ZPk5odSQ0GgYD2+zNmoWXLlh6h7iKDcCF7WsXflTRO/HuAwKoWMwEEEjxtTyBbpgAAIABJREFUScW6KVNhN5vQ5/FJ8O/ZH4pfkBCN6XPDoJ+MdSU2LH2xeLlz0g6YuO5V0Tc+UfJiCF3Y66PwDI58/yO2fLoAgW4TUq65GjFjrgBCQ0SgIhqQFoOHN33FoOUNyYvFWvNpkF5jBPzKPghlQdHb+/hyL/roliJrlmkYa5X+LXCB+CM8ewRoMxaxWLn6qanmh+Dtfrx9H2NcvIkUfXmfSiVUlZ4JV7BD0VsIkbJTczhhJbCQkwlH9kkxBrrS3HC/k/z8YIuJgymiETTa5Pmow32lGUQJSS51V9BgKypCybbNWPnyPxARF4uO48cioFcPICSCN1TqXkqd581sLVt9Dqc6H4SKVQznOy6VxoqKPeneGFwTinQBhw4i9c13kLdnLwKaJSKh3wCEx0TrVrciYHuOl+PkMezfuAHnMvYgrLAYSVHRcFEVR+45NLr5eiTfeAsQHa9nEAwRKP3Ng+5DnDI2Fw2ZmTWnGM5nXKq6AYny7/S8ic7WW1Yb1AmVFXNvDhFAKm3wZe+npyBMBuSmQw2J+oy1J0oKuVGo3iysynupNJ8rpGYA+JJi8DY2FKeMMCEqTqligMyhZJhlF5xHjiJv7izsWLMVYW3aod2tNyAkJQWw+UO1kIER+V7QmBmumILVFVGlNAksSiPZUM8E56HD2Pf1Ihz9+WeENWqMznfcioCePYHgEFEAywJGkatgawOGZbrfBsVx7mdTfg5VZBC8AQRv4+It1vm6DzTU+3j7Pr6A0Np+J58YBOGIpsB9JAPp77yNrG1bkTjyUnT8+51AdFNWruqGfXpJi7GllWpz9PYuNQcNwTLQwqXTDylpTSxcJPU6i85LHDj20yJs+/AzmF0yet4wAY1HjmClPlNfFhKxUqe1hksxVOWkaNRV+/owvEVSHZ+LPJ/hDWCInqoJxbx8RbT3MVh7uwvff14xxUC948NJ0V0HquDyd6FvfjpaEnIyEnnRNHJzsyHOMfNBjjysKciJKhfSzpBCn2IQN3jigyQp8OmUpTfDcjpxdvMqbJ41HTiRgy733I/wESOhhQSLKghWhgtalalRL1bL9cUgVLn56L4aFMqFy5wGk1NFQfp2nFq5CntXr0Bxfp6o4zebIFHtvn7aZ+sgRYXdBfipboSaZARJKpq3S4ISZMeeTXsRc/0ENL/pNqiNYvj3PMucGYgZVGKNz7zseXkDCL7PPm+vFAY6pa57bAwk7p6qtWjuUlWCcZWVfVc4MPDeVjGeiQ2Sq77Oqwmax2lcBw++AARv39jw62APMT5YkGiRzNio+4gGyVEC9dAJ7FuwEFt/+wWxXdqi0/VjEdS2PcwRjdkbwaRQTKYGcnordInUCQSmRJUDy0/Ir0RywX00E/u++h5/LP4GTZvFo8PfJiCwX29oAWFQuSOmjqVZISqwOZ9tfBwzeiakQXj++edZg9CqlShzFPO3FOZ6G5aLP/dhBHwDCBQLSdnrKMHZpcuw5d33IVuAvo89jIC+/eCy22HhgFmGJ3mqi+cvGMvSRho135Ww0yU0yYQYn+JMmgzbuSIcWLYW+2a/DVexE31vuBHRo0YCMXGQqdcAe3eJE5OgSuv/4mBQhdVynQMELrMS6F1Qg0JFbBAJnmHKCDFCMiTAQWm+sIGMEBoKIHAoIF2BcQShwG8mFbRwi6ONnk4/NPXY+4CHscwOV/wPlKu3csBUWNNBIi4zTC4Zp7dsxJYPp8F6aDeaDhyBZtffAlPL9lDNpGVwifMTCxN1q+U/GUBgUllvm0t7tlW2CTo9NwdnVv6CnPQNbH7Dc4lPa2U9CmmTV+3BCIkKh+YswOkdO6HmHIfVX0XBOTfix/8dTW++F1qjEHE+5Ry9Xnmkn/yMlIO3FAM9moYCCBTGytaIQfrQaVWkiITgmuygjKvySZYljqTP4LlSBhTE+iRbYNGLoKarkh+DDrNK6fo6BghiU9ZFpLogUC/u5PQBHIBy+BD2L5yPA8t/hX90BCK790SLvoMRnNyKq3kkux0mm40P/mRlLpqj0+wnu3cZiqMEUvYxHPhiCfb/thqRcc3Q/rprEDJkABDgD+qvymkFrkIyekELcaIRo7wQcToI0LBhYxqee+65iwChnrc5nwCCmEgSJEWBduwEdr0+HUc3bkZ0326IGTEE8T26wxwcKNoJW6xM0nL+U0eKoguA9/w3TTqDOScUzwdB2QmTsxhHlnyHDZ8vRkRJEdqNHYP40ZcD5OQFFU7On1JjGAlWvUSwnsdNTNSGAggeHIARWEpZXH2/qykh4gvZW5fj1VAAQYgDhdGKaPEqVOfiVEO6GUqNuaG53FDPnoUp0A/OQH/OrxIApd6NwplTB6J6wCMxbGHGPvz4whSYj2agf/+eaHT7PTA3SeBmRyIFQXlsYSbEJCtHuKpHupQarSeRYlXPztDucLksl7eZyf5BMB/EpBQXAcWF+rHL0B3oi44ANgEpopXJtUtxw7V5Gw5+ugCF+3bA7OeH6NHjEH/b/VBjI0SVEhvqGLNQwFNjjVTfUrzhGQT2wyBGtFQ5byRBRSmnuDzzd5VXlkiais1RAHURtzyfvicLUfH5GGLQyrYZ9cMglLKO+gfzYY0/XO8gSwCa/tMlAxn7sO+jj5CzYyfyz56B5ueP5H59cTbYjogO7dCiVVvAaoVmMUOWVVioMohazGdnYWf6ZgRl7Ef+hu0IjW+KNrfcgKC+vVn4S/sBta1nrTDNDh5iKmvU2QN9yKmAxFu1Fc21iwChLiN29e/lE0BgjCistVj5SjTljo8X4eTvexEW3QhJQ/qj0eBeCGmWANhsPIEo7UBTQa+4FQo7LxcFeiONyz73bifUo8eRt2Y1Nn/6KWxF59D+5psQd8WVQHxTURtPaJ+V+hTyRQcdQTPV/9VgAEEXFbGzos4ICIAg9BYiAFT8zpXzmfXVvbGqAOipQajvFAPFNvZGoNOMITznA4obppwsrJj7CU5s34leg/ojecwoaOFhgCWQvSFowhHIEKpts2AjCgpwZOFnSJ02E627dESnJx6C0rodTGaiUqk3BLnkGWMvQAlNvGp8kkpTKw2ZYqDxsNAXZHMjca9uKlcUrXqEuZZxkUFQ2d4u+oRS9YdqqP0VoLAQ7hWrsfGNt2EvOYdGl/RH07tuhdKiAyxkz0s5eM+cOpsSiTf9MwEEwZKQJkPvpUDlf7zFk+ERK37FQacG0zcGGQYcoFQOa4BEjT5X6rHRWdUxyLNSpKEAgogVIh6IeCFuUmgtROfDYqkAAfAHSjTg9BnIB/Zi96LPcDI9DSbFDSeVVocGIyA4GMU05S1CjKm5FdipptHpxOmcXIRYbYhp3hYdbp0Av349gOAIgMptuZO6LNg9wVnwPCPTI3I8NPqcyWbfAELapo149tln8d70Gdx7xrguphjqZt8zDjU+AQSFKTOB+GhyKc5iWHLzkbk0FZsWLEFhzgk0TmmG/rfeAFvbDkBIJBRrAAtcuO6WTd1FaCqdqxW+hwglMjSVyvXAFK+8fTO2vPc2Tm/fASUsAj1uGIeAq8ciMDKK7UwFdSn4DcOMoUFPy+ykqGLZ0qVcurZ48VeIj28ixqk0/1/T2b5uHqYhFqqbd7vwdxHiLA2zZs3idsJPP/0UwsMjSjdKQ//l7ZMqarhqMuo0xqD0+fPRTkXByUNY8/58FKzcgEhFRaseXRE3eABsg/pBZi0B0Z4u0RTGZIVUoiLr2x+xddrbCLDKSLnvfoSMugKqn1UvL2XHmNLTIi+kMh13jV+J2C5ZkXmukH3vxIkT2ea4tpcvoltuyWzcmX6DZLjFRUdc/ir+Rx5j/edGKoC5EDbDIcdJyr0QAnNBzvgdW6ZPg3nLNjaraT5sIMLufAp+sVFwsx+QaAZGFR2iNp78IXRNh5cvmZWVqfsgDMN1142HlctHa3f5Nl8qrxYxZwzOo7JLoC8itHJ3SkRMFeeh2hjNGs946/ZtePvttzBhwvl3c2T9jcdlhCbxGXovitJ+GfTgVJicTshZ2Tj9xz7IZ87iTGYOjvz6PchqmWaGWaIEC3llqKxjodRd65QUWHr1R0xSC4QktwCYVWbpIWvUSh0pdd6F9ei6JV7pBs935P2ARwxCRYBgpMn4Petc71S7ufi/8mrfAYJY8aLsRXPBTiNwKg9Zy1NxeOVyZO5JhzUqHM179ERUxxQEtmyFgMTmUP0DOVgY2yTPCf0/PP24WAzECJPyvy4Ub9uFXR/NR97WTUhs3waR/Qag8XDSHMQKYVUN6uCGAgl0z6xBWLaMTTu+/HKxDhB8r2L4X5lI5QKQ3ujl/9u78iCpijT/q6qu6otuoJGjBaRpuhs8YFAGHTzGA3F3dlwdLxhFUDFcBWY3YhyDwB11Z/3DmJmIcXVjIyYcd9RdZOTQcb0RGcQOQUWQSzmUQ7tBmoam6Qa6u7qujS/zZdWrV6/qvXqV1V3VlfUPR73Kl/nLL7/85XelIAiPPvooqqr0BMFeWW47G6ERP/0Jjb5zB86i50Azk6cjn3yGI1/uQlHlIFzy4H2ouuZqRLwVCHlCPHYlEEKouRmf/eE/cWLzFlz+81swfO5shEaO4Fdx67JbYsFrOoGOSrn5rNKGGQgGogSBbnN0cheDPVwSd6hoKrKmPK1SEvkGT66aCDyBHnTv2oLGp57C6BOnUFTsxalAAEPvWYSJd/wMkfJSBEJu+NhFRWKN0w2cdHdDYgEpI0J0cyJVUrz++usdX/dsNR67a80evqlby7Qv8QThWdx5552Or3s2EgS2LYvqmdHAVD5nPIKHW32ojLQrQHE5bqDzDPxNhxCkmiOhMLuzg9KH+RZPrNCNMrroa/honjpLtSCYkVOzIon0R915KTnxUgTBrqxm+zlbBIFfQ8wXPivZyVhfCJ5AL9z+ICKHmrB3+V/w7dat6G1vw1l3CIPr6tFw9XWoufJquKuq4DlnaLSqWHRQ+mMf0evuTpw5dgRNGzfi+3WN6Gr+HhN+dCkuvGceMKYGKKmgOBf+SZGGmDbjd4gyLWIqfLNu3TpTgmAnLcXhq3P6ZyJIMycIAmUzkL09GETk6GEcfPkv2PPWWxg9YzqmLP4FPGMpAMsNlz+MSOtxbPnTH/HthxswqnYSrviXf4b7glqgjEzOXOGJU1fiBJi5dAxPUVXCYBCPP/E4Kioq8Mgjj8BXxGyvaX3sbWDJXXp25ZIChMUJs6jzOPYt/x/sfWk5pk28CINHjcTmjZ+gtH4Spi/6JxRPuQQRDy+3zPyEVEI37GIXkFEtiVQf6k9LSwuWLFnCNsE5c+bAyWVNmW7Koo/28O0bgvDF9m149tlnMXfuXEaekrmxUuObiH8iQdBiRihtWNvEiSDyOAuK0+FFybjpjF+KxBdE7MDHU0N5dYNYwDp/LmapijGEdAmC3iqgLAhpqQzHD9sjCCJuXssP5rX7ONOkaBOPPwxPazu6v9yJrzesw+mmQ2hramakwjd8OLxjR6Lh+r+Hi920qMkVSz3jNgQWAElJEt8dwGfvrwFaWlHuK0H91Vej/o45wMRJgM9Lhb0QoYLwuo8speAEQXo3KfyYBYFcDKNZU0L47SpjJ+/P1d8IgvD8888zF8PSpUv7z4IQDrLa8gGXCyXBHoQ+34TG3/8W3W2ncP7Nt6Pmtp/DPbwKwePH8fmfX0JrYyNGnDcOlzz0IHxTLoarohihcBfcbp3Jm7nLdI4FjaxaVVJkZYuDAZaeRZUUiSD0pQVBr2DtyiULY6AKpof34dPf/w7tW3fg+oWLUFpfj61vvYODHzViaMOFuOrBxSieOhmRUi8vyEWnUbo4jV/6bLlmiSCwuxhmzcLs2eRiyJw46ddhOmsllwgCuRieeeYZRhBmXT8rZWxEsjGaWRDEjZ1889YinVm2mbAKiI1fVGelCC9+CV2c01QrBiV4QyAS4iXhNYuzoB2x81yMUTghCGJOFUFIR6KdP2uPIFBQC7Pd0sRTIA+vux4KU6Utsi5p1z1TidKuTriOteD0lp3Y+e4anDh4CIHAGfR4fNEb0mLFlHh+AyuH63GjpIfXOx82sRZ1N9yAIdMvg3t0DeCjam+UpxWvaEhxseuODZ++siDQa8mCQAThySefxKpVq3HuuYogiEWsJwhWdRDsbFh25jXBxRAOIuQuoppxLM/a29WGMxvW4osXluN4SzumUUbM9Eux529r8fXadZh4/lRMnj8fuOQihMtLmNzTZTcRLSxduMV48S8ue6LvRoKQsNGwLIYgfvPvv0FZWRl+9SuyIFjX7LDCxhyXxHURTxDYLEXjgkxJLXFxljsfxKmP1mDLfzyNcCCEq/7tCZROnYLe1qM4+MIy7F63GcMaGjBt8XwMmnoh4C1FxOVFQKtHUmRS8Ma4ZsnFQK4oOiXfcccdKMoaLvFvtsLWLsmQ1Y7onWhvx66dePrpp9MiCIl9YVElBshFHAqXXxaDzqrY6lzArD6EVg2SlXEPslgDdi9FNMgiFoND2wLVBeH0gGd58KnXV9h0RhD0Y+JZDJ/i8cefiAtSVDEIzolAUnIZDgctXfYkPixiVTvv8+qGmnJhucN0exZ5r6hudwhearLLj/CRFoRajqJp81Z4WptYpSztElVeI4E2d81fTR3s8VWicnwNBv9wGty149ltXxQty9xYLip6Q0WTrBWqnY3ECIheedqFWe9ioFPhL3/5MIYPH8GsCsxHZ2JataNI7BAeGe3IaEO/QYp+07iJOK1duxZNTU3MZDxkyBD2fzTnZu91ZgkyUXzi8nqtMy5K1WNR/F4WP1Pk8qOyvRXdjZ+g5ePNKHe7UDZyBCLH23Ay0Ivqv/sJBv3ocnSWFqGHrp91uVEU8lJ5uLhpIfO5YavR2VrNJYh0akdnB1asWIGSkhKGC1kQ0pVX4/Pm82iRhx9XUCZGdGJkh4c50sIfGuhGqHED2tetQ0nteBT99B8Qqq5GKNKLsv3f4sArb8DddhJjfjwN5876MU6XD0WHuwSnPVSEqQi+UJKIfm190Dvb2trw3HPPYdq0aZg5c6YtgmC2hvX/ly6uxs1ZL892dUKyNuwSDeN7Dhw6iFWrVjHLyvTp02Om/RQdSrSA0JXbRitOfFxI0E3lwrXaNSLbVbtxmd3ToWUdsPVusmNEibk7Vm6fuSa0IN5oCQaWYRm/duxYbNhFWVo5f/pzz77dWLlyJf77T3+WmsWgl/9051z/vJP9JJk8O5VjvSw6bcOWBYHXdeflOkVNBGFo4sZWfs86uR3otMBTVnh6FUJB4NRpRIJdiZXHNL1BjJQCoSI+F1zlQ9hFJyzXltU3oDeSBYOn6rBCNxYfp2BYtWv2PZGBxsZGPPXUUygvHwSPpyhleVUn78jH39CC7ujoQG9vL3MvkLVHWHzMSEK2CAJJLGWckS/cX0SbPTCkx49hZ85gYjiM8Wf9KKVArKFV2O0K4ZtBpTjsccNP7i+q5klpcB4XirUb/sw2jZi8xZOfRAtCGP5eP4sEJwwqKyujNQSckLXUcmGVVmwkV7ETpWjXG6EiVEFUnTiOGSGgGi40DSnHpx43zg4ahK5gF84JulDd3oFpXh9C3V04XOzB/tIytJdVwl/kQXcoCJ+NyqZEHk+ePIni4mKGC/073Y8zGUp8i50Ny6pvsvoSDIdw9uxZhktpaaktgpDYN3MLgv45urmRp5jrarRrJZC5bufVqdmH501yO0EcWaBsN83GphUNE1/ze3Xib4K0wjDV9xQzTJj89qnfoba2NvqoSnPMBFWTtWDHgkBFLuhecC4WvHodLwzCr4tlIsEqGNKVojyjnN2yx6qM0ebPpSsqS8JhJcxXrGG6VpbMUx6eJsU+WlIxc2BRHhU9lr7ikAtZrDVSArTpdXZ2siCrsMjB16fYGAiNE/IiS9nIUHxMPxgCRI1jYgl2OrbPp1fcKKnJkTXPs3wPLycdf5wxuhgoRdfH+CXdwserLpYFIihxhVBy8iQOv7serhPtqPvZT9BbPRIdPg86qLiQm06+HrjommdvEMVBvU/c3HwvxplM3nh6JxcSITvslC70LltXlgY9W+JsfTma9aZR5nbD39qCL158EUVffY0fXjkDg2+4Bl1jz0MXy4OPwBcEykMBDD3bhb1vrsG+1qM4/5abUDRuHCIeL6u3YOBWSftPpIkIt5nb0OxHVnJoB6hcX1v6uxxYX0VwoG5wRpk3jjtZFkP8c0LutKgBprS5i0G0TzWzUn/IHcfLJIrf8FY1Kddid0Scg1Vrqb6nMfl8Ppw3Zhz7M3byN5asyuQt6re2LAhBlwdeVl9TA8zDT/b8YhMRsEW1Dog8uEFKmfglhSvRhh6gS2Ooihar3MUtETSh3FPFRYiRiiDVyI8goF0uxIssaWkyGvu0U5Ex02lNxzwknuUboqitxsfHgvUMG2EstdN+LwVG+l/IaEdGG3zuDIPUbdoCBz2mbHM0Bq6ZpAiajTseA5NLwAzkpRduRhCYhYqsYFQYKUJOszA8gRD8+5uBriBKJo1FuIxqHdBlwDz6nsIOqFgQlW+O8Eovph/9+FP3OVbKmK2DSIQFdNEnSqhsiEUCyWRpxAazrUVZbbOTFleyMfLD0hxPHMWW//ojOrftwjUL5sP748sRrqhApMjH3YURKjEUhCcchP9gM7o6T2NIA93ZMAgeKl4W9CBiKGlgihGr1sxN0mwsNgikDajy/pGojtSCuhMKOOkrhycdrdk6iSe5tCaYXtbaiMKv1cvQ9nkuqybviU0XX9kitJGXpeKVK1nFTX3Wg9aOUR7M9BK/ZprvF6Iyr6h/oyd5Mi0I6ewDSXVDNIA5M+LfX31JIAh2GLWdZ5ggxS3yZCbPGC2NFsiIBn/FNlwxAU4sCDJOGmwjtDg529FGMtrIVl/ERmVnHHEbdRZwyXZfYicOipfg1g3h5xRjS8/sb3YiNyJpoh0TwLY8psVt4snnyqod676wjb83iKYdu9FxvA31UyejZGQVQh6y81GELlVc1K5Xp4qCrDYJuVnigzfFySJVZo9VgKedKqBmWSSJc2iFC68RkEq+NTtqymUyEPuiJ49O5Y6fHazwtZ4jY1/0AYpWm7X+exkWXRltZFvfpRLWVPu5LQtCgpozqUGQDKTYWnNCEIQSiwmUE4KQ7oanni8sBEQRJGbx0VwjZgikIgzJT+RxW41lIKOZfCe+1yq+INEVl9iGPYJArkVXT4jf31DsBXxkMeARRtxiKHzRMbeSSI6PvZMr/OSKNLEviUTajuk4uesnvQOG4XSdoO9ITqw2sVzqix18E123MuQucR0560viHhQfZGmHIBSWVpMzWkcEId1X8zLlZkrNsMhYOqXx9BEvUIogpIu+et6M4MafZnmAXqoTrjjBJm5c2k45AGGmdctWY3RvjrCroYPahVgsuZkFEXNlHcOPW/5i/9biTtKoNSzH0qaVktbNzUA+7aUjgnbwzQ5BMKEMjiyQxv3EjgUvHYQK+1kx965IhC7ljn2cLCD6tbXAWU8olxMtSCaqTIyM04q52+mL9eRbj8e6DXu4WLdj16Vj1VIujyl7cmeOSnxMRGJKqt4FwVvQucKS+BVl4CujDWlyp1XEozscmCVQS4mPOqGjl4TFB1oKC0L/E4Ts6AI9GbJac/rvZcxtX+qCxP5aB4Yk3PtggxQ6w0W/n5iTA2ftyiIw8e3ka1/6xILAobKe0OSLTS+YmQV7pLOg1bOFgoC14jMPzRrY+JDVj5U8YTX6qVYZBVVSpDrn8Sxg3dTUbsRTrdmBISm5tE7EfqIsB9mUrT4kCGqTz+ZEqrYVArIREAVtQuIWZN112uwUzZa02vxl467as4OA2E+U/NlBy+kz0giCmi6nU6B+pxDITQQ0rwLrHI8jMtzKmpvdVr1SCCgEJCEgnSBkdqbIxA0hCRHVjEJAIcAQoFv9WPldHR68UFrsP+KDj63jgxS0CgGFQP4goAhC/syV6qlCoE8RCBBBEG4FYgbkatDiEYgjsFyFuOwkRRD6dILUyxQCWUJABHFLIwhZ6qdqViGgEFAIKAQUAgqBfkBAEYR+AF29UiGgEFAIKAQUArmOgCIIuT5Dqn8KAYWAQkAhoBDoBwQUQegH0NUrFQIKAYWAQkAhkOsIOCIIiVXmnA1TX83OWQuxSmlOK/GJ9+ZaX6hfycZEfaWLccQVytGAEsP/O8VU/7t8nGsjHuISJoGn8VImJzjlOi56DPQlpI33TdBzoVDI9hXLVljJxCXVGrDqR6p1rb96XKwlep7+nkwPyNIPMvRUtnAxw5Rko4iu9tYqIsZXIDVWvbU7K/HPycJWFi6y2sm3uTabPccEIdPBOxOlxF/JEK5c64vVmPQEQRAFmg9ayB4PLxuc6tKhdMZr1Zd02sr02XT7YiQK+n/3dV8yfV+q3yfDRcgAyUgwGGSbnyBHJCtGIihjTac7R8nGJasdY/v6dUF/1+NCaycQCLB1lKufbOFiNV7CifChD8kQEQeha6x+a/W9jDHJaEOQRBnrwGrMdr6XNSY770q6DsPhoCpFlQmC/fBbQRCOHz+OrVu3oqmpCT6fD1OnTsXkyZNzWsH1BVxigTc3N2Pv3r2YNm0ahg0bJo009cUYMn4HlUIOR3D6dCe2b9+OPXv2IhDoxbhxNZgyZQpqasbx2xi12ytlEcqM+53lBsIRsrwBp0614+OPN4JkpKKygq2bhvp6lJWVGy4jju+QsJBkuZs51TzJz6FDh3DVVVfhnHPOSWplyalOq85IQcCRBcH4ZhlMR0Ybshgg3cVj444RywmQNSYzvM+ePYtXX30Vu3fvxujRo9HV1YWTJ09i7ty5uOCCCxi7z1VlJguXZO3QaefEiRN48cUX8d133+Hhhx9GfX09g9GISbb7Yikkugdk9iUUCbPT8Jo1a7Bx40aMGjUKlZWV2LNnD2pqajDv7nkYXFmZ0D3ZMiNrTOngmPQ0RC44AO3tJ7Fs2TIcPHgQEydORGdnJ9rb23HluCSzAAAKdElEQVTjjTfisssug9djbkGQiY0sXGS0Y9aGIIx0CHnyySeZflm6dCkaGhqi8BpP2jL6ImOeZe0Dqi9AxgRBllDIaEcs4ExNRPnQl6+++gqvv/46U2iXX345Ojo68H9vvIGS4mLcfvvtbDOQ/ckHXGjuiTS999572LZtG7xeL/71179GbW0tPG5+rTOZSMUnH8aUzjxG1wCAlmMtePnllzF27FjccMMN8Hl92LhpI9555x3cO/8eZkkQZmLChFwR9HuZ64j6nlPrEUBzcxP+d9kyXHvttbjoootAZHv58uWoqqria2dQRRzkev97OnORiqjIwkVWO2ZzRDpl7dq1ePfdd5mFcsmSJWwdmRElmTIjQ16yiUs6MpDvuGRMENIBSz3rDAH9JkZ/pxMynQw3b96M++5fgJpxNeju6cZHH32Ejz7cgMWLF2PMmDHOXpbnv/L7/fjggw9w4mQbBg0ahMbGRobHhNoJjCDIPAXmMlS02be1tTH3wvjx45nVgMgSuaReeOEF3HXXXYxcCrJUSLj09vYyQk2EIBgKoqm5GatWrWKb36233orS4jLN2sRjeQrhIywGQteQjiH9sn79eoweOwb79+/Hgnvvw4QJE9gaEmSyELAp5DEqgpAHs2885dLipRPPgQMH8NCihageVc0U3ZYtW7DylRVYtGgRM6kXitLXTyEpLnK10H0B33zzDVavXo2FCxeidvx4eNy563aRLYY09+RiIDzISkBEgEzp5JYit8sDDzwQJZFCvgpJXmhDJLfCuvV/YySypKQEs2fPZlaVEl+ptnZ4plChfIQckMyQjJD1gCwsgVCQEQUiCEQ26XsZmUCFgms+jlPoAkUQ8mz2aOLoBESmYwocWvSLxRg5YiR6A73YsWMHXl29GvcvuJ/5VgvxI5Qc+eCJMK1YwQnT+JqagiMIpMjFh07MZFkhiwK5G6644gpmURAZL0bXy0CWHaH8Tp8+ja3bvsDOnTsZmbz44otx8803Y+jgKm0DDA1kGOLGJjAhmSEiSeSA9Mxtt92GbTu2M5cduaXIyqI+hYOAKxIJJVBkJ6zZePqQ0YZTP9JA7wstXDoJfv3113hw4UOMIITCIXz22Wd4/a9/xaKFixjTN+JgdkJMd55ktEHzmu12guEQM6fbIQjZ6ku62MrERbRF6WgUqU8nwCNHjuDKK69krgU6Mev9o6n8ynp1KGNMMtpwqhvE74SJnIh1IBhkfnYi2HffPQ+TGiZprpfkl08NNB0j5IVw2bRpE8ODsn/ooLF5y+f49NNPMffOuxiJovimZC6GgYZLtnSDE/ntj74oC0IekEEzF8OGDRuYaXTePfNRN6EO3d3dWP/heuzYth0LFixgUeuFZDIW0yh8qWRBIMJEROqhhx5C3YQJcLt4DIKTDSoPxCSui+RioXESOXj77bdZVsesWbNYKiwFnBEWbkrX0YII9UGK+TbWdPtLsRmEC52GKcUxHImwTI/3338fc+bMweQLp8QRhEKQF33sAeFAMlNRUcGI5OHvj2DXrl34x5/eyGJX6urq0oVcPZ+nCCiCkAcTp9/URIAQuRdWrlyJCfV17ERI5tLXXnsNteNrcfNNN2UliyEPoIpueHoXA8Ug1NfVR3NX9VkM+TImu/0UpJAsKGQqfuWVV1gtiJkzZ7ITIW12RBAGVw5GaUmJ1II3dvvYn8+RRWXfvn146aWXcN1112HylMno8fsZOaCYhHvvvRdjzh2ryVHhuBgEsSbLAKU2Hjt2jMkK/Xvnl7vYYWT27XdgxowZjDgks3b159yqd8tHQBEE+ZhmvUXaBHp6ephPmYKsRKW86upq3H8ftx4M5E3QCmDChwjCJ598gjfffJNZVBrqeNBmIVgQaIxEECjN87HHHmOuBTIVizgDSntccN8CXHD++dE0x0LARcgNkWmSi88//xwutwu9gQDKy8txyy234NJLL0WR2xslCIWEizh86EuTEz4bN21iMQn3zJvPshhUkKKVBho43yuCkAdzqa9yJ5Q8/XnmzBnsP3gAra2tzBRIJtPqkaPiaqfnwfCkdlEE3cHtYrhQNPakSZNQWVGBcIjn+Q808mSWpx9GhBEDMg1Tnj9ZDSj7hZ6l9M+pP/gBRgwfEY1GFxvhQHdLCfkgTMgKd7TlKIq8XhazQwS7pLgELvA6GZFIqGDcdMlqPZA8tLQeY7JUVzuBWQ8EQRjosiJVMeVpY7YIgtEH50QwzPx4MtqR0YZTc5mMMdlpwxx/XvSHl46lYCoXilitdOf3MNjpix05z1Y7TuY6yGrGu1lZYfFx0k4urwEz+aXhins6WFlQFm7A4y8o9MDt9rA4BL4R8mA8PRG1uyZkzLWMNkT/jfJpNtdig6M/KbiXsGCYuNwsHsEVLbbMhUaGvMhqpy/6YjyQUN8JFxGzInMdycLFSTt9LXdWujMXdYwiCNqsyVh4TtowU2zGdvSCE/uOE4TEhcFzt7PVFyshT0dRW7WViwsmF5Wjs7kmxiCCFLmvXQZBcNaXxGqLTtqxo/DtyJSdZ9KVXScbmB3dYNUPtR5TI6Tm2hyf6N5i57ImBWJqEDPZNOwogVQEIVGRKoKgny07m4YTJZutDayv+sLJgSIIZvOo9F329F0urUc7utfJehxIZFBZEPLYgmAuvIogKIJgR60pgpBMkSuCoAiCnRUknskl0iO7L4ogKIIQtxaUciwU5agIgiII6WyDfecGstMrGXpKWRCSIx11MQSDvYVTbNyO5OXwM/Hm0NiNhPEn5sLJ3c7hqcqDrlHKJ8kQBbWaBynmwSBUFxUCCoEsIuBSBCGL6EpsOtFXak4QgMK6YEYixAXWlCAIPJ1PfRQCCgGFgBGBjAiCftMy833YhVu0I6MNM7OR3X7oTY652hd9FoPZuIzKfiDPUSZzLRuXTPrSP3KXXQuCbHxzaT1mMteyccmkL/0jd8m1sdoHzLHpD1zEOx0RBPP0unS2Yf5sJul44m0y+6JfMOmPJuajcxLhrn+fcUzJshjM+xgzF2c6Hr3yyWRMuTRHSu6E1MRiEIxWp4Ey10rukmsxpXvNsZEhMzLakKV7M9V3rkDAHxeD4DTtxypoxE50pVUbZmzZSX+d9MVss83l/jrBxQ6+CjuuWJzgq7AbGNgVwjxmS98p7PJjDUSPEYogmE+YE0F2smlka1POpb5kS9ko7JwrG4Wdc+yc6IZ8WwPZ6q/CLj/kLkoQ7AQp2jkpW5nk7QiGVRt2lJqTNpKdCK3akoFLtsbk1EwsY0xqrlObL/XfOpknGXOk5C756paBr1oDhbsG+nM/kSV3iiAY5Fcpag6IUo72FJsMeelPRZKtuXaCS7b60p/4ylLUaj1mbz0qubM6AgMJMQjWP1FPKAQUAgoBhYBCQCEw0BFw9fb2qEJJA32W1fgUAgoBhYBCQCGQJgKKIKQJmHpcIaAQUAgoBBQChYCAy+/vVhaEQphpNUaFgEJAIaAQUAikgYCrp6cr7ToIdto3BiuZBe1YtWMnVc+qDfpeRl9ktZNLY1J9MZeeXMJFyV3yFS5jXefSXOdSX7Ild072gWz1hdp10p9Ckrv/B1qgRfNIoNDrAAAAAElFTkSuQmCC;" vertex="1" parent="1">
          <mxGeometry x="270" y="40" width="230.38" height="70" as="geometry" />
        </mxCell>
        <mxCell id="zwPLfm4R1rq6E3rboXGS-3" value="9" style="ellipse;whiteSpace=wrap;html=1;aspect=fixed;fillColor=#dae8fc;strokeColor=#6c8ebf;" vertex="1" parent="1">
          <mxGeometry x="270" y="220" width="30" height="30" as="geometry" />
        </mxCell>
        <mxCell id="zwPLfm4R1rq6E3rboXGS-5" value="" style="endArrow=classic;html=1;exitX=0.038;exitY=0.757;exitDx=0;exitDy=0;exitPerimeter=0;" edge="1" parent="1" source="zwPLfm4R1rq6E3rboXGS-1" target="zwPLfm4R1rq6E3rboXGS-3">
          <mxGeometry width="50" height="50" relative="1" as="geometry">
            <mxPoint x="330" y="240" as="sourcePoint" />
            <mxPoint x="300" y="224" as="targetPoint" />
          </mxGeometry>
        </mxCell>
        <mxCell id="zwPLfm4R1rq6E3rboXGS-6" value="选" style="edgeLabel;html=1;align=center;verticalAlign=middle;resizable=0;points=[];" vertex="1" connectable="0" parent="zwPLfm4R1rq6E3rboXGS-5">
          <mxGeometry x="-0.0533" y="-2" relative="1" as="geometry">
            <mxPoint as="offset" />
          </mxGeometry>
        </mxCell>
        <mxCell id="zwPLfm4R1rq6E3rboXGS-12" value="" style="edgeStyle=orthogonalEdgeStyle;rounded=0;orthogonalLoop=1;jettySize=auto;html=1;" edge="1" parent="1" source="zwPLfm4R1rq6E3rboXGS-8" target="zwPLfm4R1rq6E3rboXGS-11">
          <mxGeometry relative="1" as="geometry" />
        </mxCell>
        <mxCell id="zwPLfm4R1rq6E3rboXGS-8" value="2" style="ellipse;whiteSpace=wrap;html=1;aspect=fixed;fillColor=#d5e8d4;strokeColor=#82b366;" vertex="1" parent="1">
          <mxGeometry x="210" y="270" width="30" height="30" as="geometry" />
        </mxCell>
        <mxCell id="zwPLfm4R1rq6E3rboXGS-9" value="" style="endArrow=classic;html=1;exitX=0;exitY=1;exitDx=0;exitDy=0;entryX=1;entryY=0;entryDx=0;entryDy=0;" edge="1" parent="1" source="zwPLfm4R1rq6E3rboXGS-3" target="zwPLfm4R1rq6E3rboXGS-8">
          <mxGeometry width="50" height="50" relative="1" as="geometry">
            <mxPoint x="351.1399999999999" y="202.71000000000004" as="sourcePoint" />
            <mxPoint x="306.9706205339644" y="235.9609600049656" as="targetPoint" />
          </mxGeometry>
        </mxCell>
        <mxCell id="zwPLfm4R1rq6E3rboXGS-10" value="选" style="edgeLabel;html=1;align=center;verticalAlign=middle;resizable=0;points=[];" vertex="1" connectable="0" parent="zwPLfm4R1rq6E3rboXGS-9">
          <mxGeometry x="-0.0533" y="-2" relative="1" as="geometry">
            <mxPoint as="offset" />
          </mxGeometry>
        </mxCell>
        <mxCell id="zwPLfm4R1rq6E3rboXGS-11" value="只能选2" style="ellipse;whiteSpace=wrap;html=1;aspect=fixed;fillColor=#d5e8d4;strokeColor=#82b366;" vertex="1" parent="1">
          <mxGeometry x="210" y="330" width="30" height="30" as="geometry" />
        </mxCell>
        <mxCell id="zwPLfm4R1rq6E3rboXGS-13" value="3" style="ellipse;whiteSpace=wrap;html=1;aspect=fixed;fillColor=#f8cecc;strokeColor=#b85450;" vertex="1" parent="1">
          <mxGeometry x="550" y="220" width="30" height="30" as="geometry" />
        </mxCell>
        <mxCell id="zwPLfm4R1rq6E3rboXGS-14" value="" style="endArrow=classic;html=1;exitX=1;exitY=1;exitDx=0;exitDy=0;" edge="1" parent="1" source="zwPLfm4R1rq6E3rboXGS-1" target="zwPLfm4R1rq6E3rboXGS-13">
          <mxGeometry width="50" height="50" relative="1" as="geometry">
            <mxPoint x="351.1399999999999" y="202.71000000000004" as="sourcePoint" />
            <mxPoint x="306.9706205339644" y="235.9609600049656" as="targetPoint" />
          </mxGeometry>
        </mxCell>
        <mxCell id="zwPLfm4R1rq6E3rboXGS-15" value="不选" style="edgeLabel;html=1;align=center;verticalAlign=middle;resizable=0;points=[];" vertex="1" connectable="0" parent="zwPLfm4R1rq6E3rboXGS-14">
          <mxGeometry x="-0.0533" y="-2" relative="1" as="geometry">
            <mxPoint as="offset" />
          </mxGeometry>
        </mxCell>
        <mxCell id="zwPLfm4R1rq6E3rboXGS-16" value="7" style="ellipse;whiteSpace=wrap;html=1;aspect=fixed;fillColor=#ffe6cc;strokeColor=#d79b00;" vertex="1" parent="1">
          <mxGeometry x="330" y="270" width="30" height="30" as="geometry" />
        </mxCell>
        <mxCell id="zwPLfm4R1rq6E3rboXGS-19" value="" style="endArrow=classic;html=1;exitX=1;exitY=1;exitDx=0;exitDy=0;entryX=0.276;entryY=0.052;entryDx=0;entryDy=0;entryPerimeter=0;" edge="1" parent="1" source="zwPLfm4R1rq6E3rboXGS-3" target="zwPLfm4R1rq6E3rboXGS-16">
          <mxGeometry width="50" height="50" relative="1" as="geometry">
            <mxPoint x="284.39339828219784" y="255.60660171780216" as="sourcePoint" />
            <mxPoint x="245.60660171780216" y="284.39339828219784" as="targetPoint" />
          </mxGeometry>
        </mxCell>
        <mxCell id="zwPLfm4R1rq6E3rboXGS-20" value="不选" style="edgeLabel;html=1;align=center;verticalAlign=middle;resizable=0;points=[];" vertex="1" connectable="0" parent="zwPLfm4R1rq6E3rboXGS-19">
          <mxGeometry x="-0.0533" y="-2" relative="1" as="geometry">
            <mxPoint as="offset" />
          </mxGeometry>
        </mxCell>
        <mxCell id="zwPLfm4R1rq6E3rboXGS-25" value="" style="edgeStyle=orthogonalEdgeStyle;rounded=0;orthogonalLoop=1;jettySize=auto;html=1;" edge="1" parent="1" source="zwPLfm4R1rq6E3rboXGS-26" target="zwPLfm4R1rq6E3rboXGS-27">
          <mxGeometry relative="1" as="geometry" />
        </mxCell>
        <mxCell id="zwPLfm4R1rq6E3rboXGS-26" value="2" style="ellipse;whiteSpace=wrap;html=1;aspect=fixed;fillColor=#d5e8d4;strokeColor=#82b366;" vertex="1" parent="1">
          <mxGeometry x="384" y="330" width="30" height="30" as="geometry" />
        </mxCell>
        <mxCell id="zwPLfm4R1rq6E3rboXGS-27" value="只能选2" style="ellipse;whiteSpace=wrap;html=1;aspect=fixed;fillColor=#d5e8d4;strokeColor=#82b366;" vertex="1" parent="1">
          <mxGeometry x="384" y="400" width="30" height="30" as="geometry" />
        </mxCell>
        <mxCell id="zwPLfm4R1rq6E3rboXGS-28" value="" style="endArrow=classic;html=1;exitX=1;exitY=1;exitDx=0;exitDy=0;entryX=0.295;entryY=0.014;entryDx=0;entryDy=0;entryPerimeter=0;" edge="1" parent="1" source="zwPLfm4R1rq6E3rboXGS-16" target="zwPLfm4R1rq6E3rboXGS-26">
          <mxGeometry width="50" height="50" relative="1" as="geometry">
            <mxPoint x="359.99660171780226" y="299.99660171780215" as="sourcePoint" />
            <mxPoint x="402.66999999999996" y="325.95000000000005" as="targetPoint" />
          </mxGeometry>
        </mxCell>
        <mxCell id="zwPLfm4R1rq6E3rboXGS-29" value="不选" style="edgeLabel;html=1;align=center;verticalAlign=middle;resizable=0;points=[];" vertex="1" connectable="0" parent="zwPLfm4R1rq6E3rboXGS-28">
          <mxGeometry x="-0.0533" y="-2" relative="1" as="geometry">
            <mxPoint as="offset" />
          </mxGeometry>
        </mxCell>
        <mxCell id="zwPLfm4R1rq6E3rboXGS-30" value="无" style="ellipse;whiteSpace=wrap;html=1;aspect=fixed;fillColor=#d5e8d4;strokeColor=#82b366;" vertex="1" parent="1">
          <mxGeometry x="290" y="330" width="30" height="30" as="geometry" />
        </mxCell>
        <mxCell id="zwPLfm4R1rq6E3rboXGS-31" value="" style="endArrow=classic;html=1;exitX=0;exitY=1;exitDx=0;exitDy=0;entryX=0.705;entryY=0.09;entryDx=0;entryDy=0;entryPerimeter=0;" edge="1" parent="1" source="zwPLfm4R1rq6E3rboXGS-16" target="zwPLfm4R1rq6E3rboXGS-30">
          <mxGeometry width="50" height="50" relative="1" as="geometry">
            <mxPoint x="351.1399999999999" y="202.71000000000004" as="sourcePoint" />
            <mxPoint x="306.9706205339644" y="235.9609600049656" as="targetPoint" />
          </mxGeometry>
        </mxCell>
        <mxCell id="zwPLfm4R1rq6E3rboXGS-32" value="选" style="edgeLabel;html=1;align=center;verticalAlign=middle;resizable=0;points=[];" vertex="1" connectable="0" parent="zwPLfm4R1rq6E3rboXGS-31">
          <mxGeometry x="-0.0533" y="-2" relative="1" as="geometry">
            <mxPoint as="offset" />
          </mxGeometry>
        </mxCell>
        <mxCell id="zwPLfm4R1rq6E3rboXGS-33" value="7" style="ellipse;whiteSpace=wrap;html=1;aspect=fixed;fillColor=#ffe6cc;strokeColor=#d79b00;" vertex="1" parent="1">
          <mxGeometry x="480" y="270" width="30" height="30" as="geometry" />
        </mxCell>
        <mxCell id="zwPLfm4R1rq6E3rboXGS-34" value="" style="edgeStyle=orthogonalEdgeStyle;rounded=0;orthogonalLoop=1;jettySize=auto;html=1;" edge="1" parent="1" source="zwPLfm4R1rq6E3rboXGS-35" target="zwPLfm4R1rq6E3rboXGS-36">
          <mxGeometry relative="1" as="geometry" />
        </mxCell>
        <mxCell id="zwPLfm4R1rq6E3rboXGS-35" value="2" style="ellipse;whiteSpace=wrap;html=1;aspect=fixed;fillColor=#d5e8d4;strokeColor=#82b366;" vertex="1" parent="1">
          <mxGeometry x="534" y="330" width="30" height="30" as="geometry" />
        </mxCell>
        <mxCell id="zwPLfm4R1rq6E3rboXGS-36" value="只能选2" style="ellipse;whiteSpace=wrap;html=1;aspect=fixed;fillColor=#d5e8d4;strokeColor=#82b366;" vertex="1" parent="1">
          <mxGeometry x="534" y="400" width="30" height="30" as="geometry" />
        </mxCell>
        <mxCell id="zwPLfm4R1rq6E3rboXGS-37" value="" style="endArrow=classic;html=1;exitX=1;exitY=1;exitDx=0;exitDy=0;entryX=0.295;entryY=0.014;entryDx=0;entryDy=0;entryPerimeter=0;" edge="1" parent="1" source="zwPLfm4R1rq6E3rboXGS-33" target="zwPLfm4R1rq6E3rboXGS-35">
          <mxGeometry width="50" height="50" relative="1" as="geometry">
            <mxPoint x="509.99660171780226" y="299.99660171780215" as="sourcePoint" />
            <mxPoint x="552.67" y="325.95000000000005" as="targetPoint" />
          </mxGeometry>
        </mxCell>
        <mxCell id="zwPLfm4R1rq6E3rboXGS-38" value="不选" style="edgeLabel;html=1;align=center;verticalAlign=middle;resizable=0;points=[];" vertex="1" connectable="0" parent="zwPLfm4R1rq6E3rboXGS-37">
          <mxGeometry x="-0.0533" y="-2" relative="1" as="geometry">
            <mxPoint as="offset" />
          </mxGeometry>
        </mxCell>
        <mxCell id="zwPLfm4R1rq6E3rboXGS-39" value="无" style="ellipse;whiteSpace=wrap;html=1;aspect=fixed;fillColor=#d5e8d4;strokeColor=#82b366;" vertex="1" parent="1">
          <mxGeometry x="440" y="330" width="30" height="30" as="geometry" />
        </mxCell>
        <mxCell id="zwPLfm4R1rq6E3rboXGS-40" value="" style="endArrow=classic;html=1;exitX=0;exitY=1;exitDx=0;exitDy=0;entryX=0.705;entryY=0.09;entryDx=0;entryDy=0;entryPerimeter=0;" edge="1" parent="1" source="zwPLfm4R1rq6E3rboXGS-33" target="zwPLfm4R1rq6E3rboXGS-39">
          <mxGeometry width="50" height="50" relative="1" as="geometry">
            <mxPoint x="501.1399999999999" y="202.71000000000004" as="sourcePoint" />
            <mxPoint x="456.9706205339644" y="235.9609600049656" as="targetPoint" />
          </mxGeometry>
        </mxCell>
        <mxCell id="zwPLfm4R1rq6E3rboXGS-41" value="选" style="edgeLabel;html=1;align=center;verticalAlign=middle;resizable=0;points=[];" vertex="1" connectable="0" parent="zwPLfm4R1rq6E3rboXGS-40">
          <mxGeometry x="-0.0533" y="-2" relative="1" as="geometry">
            <mxPoint as="offset" />
          </mxGeometry>
        </mxCell>
        <mxCell id="zwPLfm4R1rq6E3rboXGS-42" value="" style="endArrow=classic;html=1;exitX=0;exitY=0.767;exitDx=0;exitDy=0;exitPerimeter=0;entryX=1;entryY=0;entryDx=0;entryDy=0;" edge="1" parent="1" source="zwPLfm4R1rq6E3rboXGS-13" target="zwPLfm4R1rq6E3rboXGS-33">
          <mxGeometry width="50" height="50" relative="1" as="geometry">
            <mxPoint x="421.1399999999999" y="202.71000000000004" as="sourcePoint" />
            <mxPoint x="309.2172718521374" y="240.21782674064457" as="targetPoint" />
          </mxGeometry>
        </mxCell>
        <mxCell id="zwPLfm4R1rq6E3rboXGS-43" value="选" style="edgeLabel;html=1;align=center;verticalAlign=middle;resizable=0;points=[];" vertex="1" connectable="0" parent="zwPLfm4R1rq6E3rboXGS-42">
          <mxGeometry x="-0.0533" y="-2" relative="1" as="geometry">
            <mxPoint as="offset" />
          </mxGeometry>
        </mxCell>
        <mxCell id="zwPLfm4R1rq6E3rboXGS-44" value="9" style="ellipse;whiteSpace=wrap;html=1;aspect=fixed;fillColor=#dae8fc;strokeColor=#6c8ebf;" vertex="1" parent="1">
          <mxGeometry x="660" y="280" width="30" height="30" as="geometry" />
        </mxCell>
        <mxCell id="zwPLfm4R1rq6E3rboXGS-45" value="" style="edgeStyle=orthogonalEdgeStyle;rounded=0;orthogonalLoop=1;jettySize=auto;html=1;" edge="1" parent="1" source="zwPLfm4R1rq6E3rboXGS-46" target="zwPLfm4R1rq6E3rboXGS-49">
          <mxGeometry relative="1" as="geometry" />
        </mxCell>
        <mxCell id="zwPLfm4R1rq6E3rboXGS-46" value="2" style="ellipse;whiteSpace=wrap;html=1;aspect=fixed;fillColor=#d5e8d4;strokeColor=#82b366;" vertex="1" parent="1">
          <mxGeometry x="600" y="330" width="30" height="30" as="geometry" />
        </mxCell>
        <mxCell id="zwPLfm4R1rq6E3rboXGS-47" value="" style="endArrow=classic;html=1;exitX=0;exitY=1;exitDx=0;exitDy=0;entryX=1;entryY=0;entryDx=0;entryDy=0;" edge="1" parent="1" source="zwPLfm4R1rq6E3rboXGS-44" target="zwPLfm4R1rq6E3rboXGS-46">
          <mxGeometry width="50" height="50" relative="1" as="geometry">
            <mxPoint x="741.1399999999999" y="262.71000000000004" as="sourcePoint" />
            <mxPoint x="696.9706205339644" y="295.9609600049656" as="targetPoint" />
          </mxGeometry>
        </mxCell>
        <mxCell id="zwPLfm4R1rq6E3rboXGS-48" value="选" style="edgeLabel;html=1;align=center;verticalAlign=middle;resizable=0;points=[];" vertex="1" connectable="0" parent="zwPLfm4R1rq6E3rboXGS-47">
          <mxGeometry x="-0.0533" y="-2" relative="1" as="geometry">
            <mxPoint as="offset" />
          </mxGeometry>
        </mxCell>
        <mxCell id="zwPLfm4R1rq6E3rboXGS-49" value="只能选2" style="ellipse;whiteSpace=wrap;html=1;aspect=fixed;fillColor=#d5e8d4;strokeColor=#82b366;" vertex="1" parent="1">
          <mxGeometry x="600" y="390" width="30" height="30" as="geometry" />
        </mxCell>
        <mxCell id="zwPLfm4R1rq6E3rboXGS-50" value="7" style="ellipse;whiteSpace=wrap;html=1;aspect=fixed;fillColor=#ffe6cc;strokeColor=#d79b00;" vertex="1" parent="1">
          <mxGeometry x="720" y="330" width="30" height="30" as="geometry" />
        </mxCell>
        <mxCell id="zwPLfm4R1rq6E3rboXGS-51" value="" style="endArrow=classic;html=1;exitX=1;exitY=1;exitDx=0;exitDy=0;entryX=0.276;entryY=0.052;entryDx=0;entryDy=0;entryPerimeter=0;" edge="1" parent="1" source="zwPLfm4R1rq6E3rboXGS-44" target="zwPLfm4R1rq6E3rboXGS-50">
          <mxGeometry width="50" height="50" relative="1" as="geometry">
            <mxPoint x="674.3933982821978" y="315.60660171780216" as="sourcePoint" />
            <mxPoint x="635.6066017178022" y="344.39339828219784" as="targetPoint" />
          </mxGeometry>
        </mxCell>
        <mxCell id="zwPLfm4R1rq6E3rboXGS-52" value="不选" style="edgeLabel;html=1;align=center;verticalAlign=middle;resizable=0;points=[];" vertex="1" connectable="0" parent="zwPLfm4R1rq6E3rboXGS-51">
          <mxGeometry x="-0.0533" y="-2" relative="1" as="geometry">
            <mxPoint as="offset" />
          </mxGeometry>
        </mxCell>
        <mxCell id="zwPLfm4R1rq6E3rboXGS-53" value="" style="edgeStyle=orthogonalEdgeStyle;rounded=0;orthogonalLoop=1;jettySize=auto;html=1;" edge="1" parent="1" source="zwPLfm4R1rq6E3rboXGS-54" target="zwPLfm4R1rq6E3rboXGS-55">
          <mxGeometry relative="1" as="geometry" />
        </mxCell>
        <mxCell id="zwPLfm4R1rq6E3rboXGS-54" value="2" style="ellipse;whiteSpace=wrap;html=1;aspect=fixed;fillColor=#d5e8d4;strokeColor=#82b366;" vertex="1" parent="1">
          <mxGeometry x="774" y="390" width="30" height="30" as="geometry" />
        </mxCell>
        <mxCell id="zwPLfm4R1rq6E3rboXGS-55" value="只能选2" style="ellipse;whiteSpace=wrap;html=1;aspect=fixed;fillColor=#d5e8d4;strokeColor=#82b366;" vertex="1" parent="1">
          <mxGeometry x="774" y="460" width="30" height="30" as="geometry" />
        </mxCell>
        <mxCell id="zwPLfm4R1rq6E3rboXGS-56" value="" style="endArrow=classic;html=1;exitX=1;exitY=1;exitDx=0;exitDy=0;entryX=0.295;entryY=0.014;entryDx=0;entryDy=0;entryPerimeter=0;" edge="1" parent="1" source="zwPLfm4R1rq6E3rboXGS-50" target="zwPLfm4R1rq6E3rboXGS-54">
          <mxGeometry width="50" height="50" relative="1" as="geometry">
            <mxPoint x="749.9966017178023" y="359.99660171780215" as="sourcePoint" />
            <mxPoint x="792.67" y="385.95000000000005" as="targetPoint" />
          </mxGeometry>
        </mxCell>
        <mxCell id="zwPLfm4R1rq6E3rboXGS-57" value="不选" style="edgeLabel;html=1;align=center;verticalAlign=middle;resizable=0;points=[];" vertex="1" connectable="0" parent="zwPLfm4R1rq6E3rboXGS-56">
          <mxGeometry x="-0.0533" y="-2" relative="1" as="geometry">
            <mxPoint as="offset" />
          </mxGeometry>
        </mxCell>
        <mxCell id="zwPLfm4R1rq6E3rboXGS-58" value="无" style="ellipse;whiteSpace=wrap;html=1;aspect=fixed;fillColor=#d5e8d4;strokeColor=#82b366;" vertex="1" parent="1">
          <mxGeometry x="680" y="390" width="30" height="30" as="geometry" />
        </mxCell>
        <mxCell id="zwPLfm4R1rq6E3rboXGS-59" value="选" style="edgeLabel;html=1;align=center;verticalAlign=middle;resizable=0;points=[];" vertex="1" connectable="0" parent="1">
          <mxGeometry x="711.7755229217662" y="371.97647938557986" as="geometry" />
        </mxCell>
        <mxCell id="zwPLfm4R1rq6E3rboXGS-60" value="" style="endArrow=classic;html=1;exitX=0.99;exitY=0.729;exitDx=0;exitDy=0;exitPerimeter=0;" edge="1" parent="1" source="zwPLfm4R1rq6E3rboXGS-13">
          <mxGeometry width="50" height="50" relative="1" as="geometry">
            <mxPoint x="579.9966017178023" y="244.92660171780238" as="sourcePoint" />
            <mxPoint x="670" y="280" as="targetPoint" />
          </mxGeometry>
        </mxCell>
        <mxCell id="zwPLfm4R1rq6E3rboXGS-61" value="不选" style="edgeLabel;html=1;align=center;verticalAlign=middle;resizable=0;points=[];" vertex="1" connectable="0" parent="zwPLfm4R1rq6E3rboXGS-60">
          <mxGeometry x="-0.0533" y="-2" relative="1" as="geometry">
            <mxPoint as="offset" />
          </mxGeometry>
        </mxCell>
        <mxCell id="zwPLfm4R1rq6E3rboXGS-62" value="递归三部曲&lt;br&gt;&lt;div style=&quot;text-align: left ; font-size: 10px&quot;&gt;&lt;span style=&quot;font-size: 10px&quot;&gt;&lt;font style=&quot;font-size: 10px&quot;&gt;1. 选择递归函数的参数&lt;/font&gt;&lt;/span&gt;&lt;/div&gt;&lt;font style=&quot;font-size: 10px&quot;&gt;&lt;div style=&quot;text-align: left ; font-size: 10px&quot;&gt;&lt;span style=&quot;font-size: 10px&quot;&gt;2. 终止条件&lt;/span&gt;&lt;/div&gt;&lt;div style=&quot;text-align: left ; font-size: 10px&quot;&gt;&lt;span style=&quot;font-size: 10px&quot;&gt;3. 递归方向&lt;/span&gt;&lt;/div&gt;&lt;/font&gt;" style="text;html=1;strokeColor=none;fillColor=none;align=center;verticalAlign=middle;whiteSpace=wrap;rounded=0;" vertex="1" parent="1">
          <mxGeometry x="160" y="530" width="180" height="90" as="geometry" />
        </mxCell>
        <mxCell id="zwPLfm4R1rq6E3rboXGS-63" value="sum=1" style="rounded=0;whiteSpace=wrap;html=1;fillColor=#f8cecc;strokeColor=#b85450;" vertex="1" parent="1">
          <mxGeometry x="338" y="160" width="46" height="20" as="geometry" />
        </mxCell>
        <mxCell id="zwPLfm4R1rq6E3rboXGS-64" value="sum=10" style="rounded=0;whiteSpace=wrap;html=1;fillColor=#f8cecc;strokeColor=#b85450;" vertex="1" parent="1">
          <mxGeometry x="210" y="200" width="46" height="20" as="geometry" />
        </mxCell>
        <mxCell id="zwPLfm4R1rq6E3rboXGS-65" value="sum=12" style="rounded=0;whiteSpace=wrap;html=1;fillColor=#f8cecc;strokeColor=#b85450;" vertex="1" parent="1">
          <mxGeometry x="140" y="270" width="46" height="20" as="geometry" />
        </mxCell>
      </root>
    </mxGraphModel>
  </diagram>
</mxfile>
